<?xml version="1.0" standalone="no"?>
<!DOCTYPE svg PUBLIC "-//W3C//DTD SVG 1.1//EN" "http://www.w3.org/Graphics/SVG/1.1/DTD/svg11.dtd" >
<svg>
<metadata>
Created by FontForge 20090914 at Thu Dec 29 11:05:43 2022
 By www-data
Copyright (C) 1992
</metadata>
<defs>
<font id="Vanta" horiz-adv-x="561" >
  <font-face 
    font-family="Vanta"
    font-weight="400"
    font-stretch="normal"
    units-per-em="1000"
    panose-1="0 0 0 0 0 0 0 0 0 0"
    ascent="800"
    descent="-200"
    x-height="524"
    cap-height="716"
    bbox="-24 -215.002 1069 922"
    underline-thickness="37"
    underline-position="-46"
    unicode-range="U+0020-U+2122"
  />
<missing-glyph horiz-adv-x="736" 
d="M46 0v736h644v-736h-644zM644 46v644h-552v-644h552z" />
    <glyph glyph-name=".notdef" horiz-adv-x="736" 
d="M46 0v736h644v-736h-644zM644 46v644h-552v-644h552z" />
    <glyph glyph-name="space" unicode=" " horiz-adv-x="293" 
 />
    <glyph glyph-name="exclam" unicode="!" horiz-adv-x="293" 
d="M83 716h107l-21 -541h-64zM83 112h107v-112h-107v112z" />
    <glyph glyph-name="quotedbl" unicode="&#x22;" horiz-adv-x="370" 
d="M278 427h-57l-19 289h96zM127 427h-57l-18 289h95z" />
    <glyph glyph-name="numbersign" unicode="#" 
d="M508 294v-60h-116l-33 -234h-63l35 234h-145l-35 -234h-61l35 234h-114v60h125l20 144h-116v61h127l32 217h60l-31 -217h142l33 217h61l-32 -217h103v-61h-112l-20 -144h105zM361 438h-144l-20 -144h142z" />
    <glyph glyph-name="dollar" unicode="$" 
d="M116 239c7.33301 -52 19.334 -89.334 36.001 -112.001c16 -24 47.667 -40.667 95 -50v249c-60.667 16 -108.334 37.667 -143.001 65s-52 68 -52 122c0 56.667 17.833 100.834 53.5 132.501s82.834 50.834 141.501 57.501v79h55v-79
c67.333 -8 116.666 -27.333 147.999 -58c16 -16 28.667 -35.667 38 -59s14 -50 14 -80h-86c-9.33301 43.333 -21.5 73.166 -36.5 89.499s-40.833 26.5 -77.5 30.5v-221c64 -16.667 115.5 -40.167 154.5 -70.5s58.5 -74.5 58.5 -132.5c0 -69.333 -26.333 -123.333 -79 -162
c-17.333 -12 -37.5 -21.667 -60.5 -29s-47.5 -11 -73.5 -11v-105h-55v105c-74 9.33301 -128 33 -162 71c-18 19.333 -31.833 43 -41.5 71s-14.5 60.333 -14.5 97h87zM247.001 626.999c-33.333 -4 -59.168 -15.6689 -77.501 -35.002s-27.5 -43 -27.5 -71
c0 -25.333 7.83301 -45.666 23.5 -60.999s42.834 -30.666 81.501 -45.999v213zM301.999 314.997l-0.00195312 -242.999c40.667 6 71.334 19.167 92.001 39.5s31 46.833 31 79.5c0 33.333 -8.66699 58.666 -26 75.999s-49.666 33.333 -96.999 48z" />
    <glyph glyph-name="percent" unicode="%" horiz-adv-x="898" 
d="M88 515c0 130 44.333 195.001 133 195.001c42 0 74 -15 96 -45s33 -75 33 -135c0 -62 -11.833 -110 -35.5 -144s-56.167 -51 -97.5 -51c-42 0 -74 15.167 -96 45.5s-33 75.166 -33 134.499zM149 517.001c0 -88 22.667 -132 68 -132c48 0 72 47.667 72 143
c0 88.667 -23.333 133 -70 133s-70 -48 -70 -144zM598 703.001h57l-383 -703h-55zM523 175.001c0 62 11.167 109.334 33.5 142.001s55.166 49 98.499 49c42.667 0 74.834 -15.167 96.501 -45.5s32.5 -74.5 32.5 -132.5c0 -62.667 -11.5 -110.834 -34.5 -144.501
s-55.833 -50.5 -98.5 -50.5c-85.333 0 -128 60.667 -128 182zM583 177.002c0 -91.333 22.667 -137 68 -137c48 0 72 48 72 144c0 89.333 -23.333 134 -70 134s-70 -47 -70 -141z" />
    <glyph glyph-name="ampersand" unicode="&#x26;" horiz-adv-x="675" 
d="M213 397c-27.333 39.333 -46.332 70.334 -56.999 93.001s-16 46.334 -16 71.001c0 44 15.833 80.833 47.5 110.5s71.5 44.5 119.5 44.5c49.333 0 89 -14 119 -42s45 -65 45 -111c0 -35.333 -9.5 -66.5 -28.5 -93.5s-52.5 -56.5 -100.5 -88.5l125 -153
c10.667 27.333 20 66 28 116h88c-3.33301 -20.667 -6.5 -38.334 -9.5 -53.001s-6.5 -29.334 -10.5 -44.001c-6.66699 -24.667 -19 -55 -37 -91l129 -154h-114l-68 83c-15.333 -15.333 -31.333 -29.333 -48 -42s-32.334 -23 -47.001 -31
c-33.333 -16.667 -70.333 -25 -111 -25c-61.333 0 -112 18.833 -152 56.5s-60 86.5 -60 146.5c0 84.667 52.667 153.667 158 207zM267.001 337.001c-48 -32.667 -79 -58.333 -93 -77c-7.33301 -10 -13 -20.667 -17 -32s-6 -24 -6 -38c0 -34 12.167 -62.833 36.5 -86.5
s53.833 -35.5 88.5 -35.5c52.667 0 101 26.333 145 79zM291.001 442.002c60 38 90 77.666 90 118.999c0 21.333 -7.66699 39 -23 53s-33.333 21 -54 21s-38.167 -6.66699 -52.5 -20s-21.5 -30.666 -21.5 -51.999c0 -28 20.333 -68.333 61 -121z" />
    <glyph glyph-name="quotesingle" unicode="'" horiz-adv-x="202" 
d="M121 427h-55l-18 289h94z" />
    <glyph glyph-name="parenleft" unicode="(" horiz-adv-x="350" 
d="M245 716l71 -0.00195312c-52.667 -82.667 -90 -158.5 -112 -227.5s-33 -149.5 -33 -241.5c0 -58.667 4.83301 -113.5 14.5 -164.5s25 -100.167 46 -147.5s48.167 -97.333 81.5 -150h-68c-40 52.667 -72 101.334 -96 146.001c-12.667 24.667 -23.5 48.334 -32.5 71.001
s-16.5 47.667 -22.5 75c-12.667 52.667 -19 109.334 -19 170.001c0 90.667 13.5 169.667 40.5 237s70.167 144.666 129.5 231.999z" />
    <glyph glyph-name="parenright" unicode=")" horiz-adv-x="350" 
d="M83 -215l-72.002 -0.00195312c32.667 51.333 60.667 101.666 84 150.999c20.667 46 36 95.333 46 148c4.66699 27.333 8.33398 54.833 11.001 82.5s4 56.834 4 87.501c0 92 -10.5 170.833 -31.5 236.5s-56.833 140.834 -107.5 225.501h66
c58.667 -74 102.334 -147 131.001 -219c13.333 -36 23.333 -73.667 30 -113s10 -82.666 10 -129.999c0 -90 -14 -169.833 -42 -239.5s-71 -146.167 -129 -229.5z" />
    <glyph glyph-name="asterisk" unicode="*" horiz-adv-x="405" 
d="M153 600v116h77v-116l107 35l24 -70l-107 -35l66 -92l-61 -46l-68 92l-68 -92l-60 46l66 92l-107 35l24 70z" />
    <glyph glyph-name="plus" unicode="+" horiz-adv-x="596" 
d="M50 305v78h198v191h76v-191h200v-78h-200v-193h-76v193h-198z" />
    <glyph glyph-name="comma" unicode="," horiz-adv-x="293" 
d="M83 114l106.999 -0.000976562v-103c0 -88.667 -35.667 -140.667 -107 -156v51c18.667 6.66699 31.334 16.334 38.001 29.001c3.33301 7.33301 6 16 8 26s3 23 3 39h-49v114z" />
    <glyph glyph-name="hyphen" unicode="-" horiz-adv-x="350" 
d="M50 313h230v-96h-230v96z" />
    <glyph glyph-name="period" unicode="." horiz-adv-x="293" 
d="M83 112h107v-112h-107v112z" />
    <glyph glyph-name="slash" unicode="/" horiz-adv-x="293" 
d="M180 716h87l-203 -860h-88z" />
    <glyph glyph-name="zero" unicode="0" 
d="M35 339c0 123.333 20.6689 217 62.002 281s101.666 96 180.999 96c76 0 134 -30 174 -90s60 -146.667 60 -260c0 -122 -20.667 -215.667 -62 -281s-100.666 -98 -177.999 -98c-38 0 -71.333 7.66699 -100 23c-29.333 14 -54.333 36 -75 66s-36.334 67 -47.001 111
c-4.66699 24 -8.33398 48 -11.001 72s-4 50.667 -4 80zM131.002 344c0 -178 47 -267 141 -267c46 0 81.5 23.667 106.5 71s37.5 118.333 37.5 213c0 176.667 -46.667 265 -140 265c-96.667 0 -145 -94 -145 -282z" />
    <glyph glyph-name="one" unicode="1" 
d="M88 574c35.333 0 65.3311 3.83301 89.998 11.5s44.834 21 60.501 40s26.834 44.833 33.501 77.5h72v-703h-90v500h-166v74z" />
    <glyph glyph-name="two" unicode="2" 
d="M145 454l-91.998 -0.00390625c0 24 0.666992 42 2 54s4.16602 28.333 8.49902 49s13.833 42.334 28.5 65.001c20.667 32 47.667 55.667 81 71s71.333 23 114 23c46.667 0 86.667 -8.5 120 -25.5s59.166 -41.5 77.499 -73.5s27.5 -69 27.5 -111
c0 -73.333 -14.167 -121.666 -42.5 -144.999s-87.666 -61.666 -177.999 -114.999s-141.5 -105.333 -153.5 -156h372v-90h-475c0 38.667 4.5 73.834 13.5 105.501s22.667 61 41 88s49.833 54.833 94.5 83.5l115 71c31.333 18 58.666 39.667 81.999 65s35 54.333 35 87
c0 38 -12 68.667 -36 92c-26 22.667 -57.667 34 -95 34c-46.667 0 -81.667 -16.333 -105 -49s-35 -73.667 -35 -123z" />
    <glyph glyph-name="three" unicode="3" 
d="M123 228c0 -50 13.3369 -87.667 40.0039 -113s63.667 -38 111 -38c43.333 0 78.166 12.167 104.499 36.5s39.5 56.5 39.5 96.5c0 51.333 -17.667 84 -53 98c-18.667 7.33301 -40 13 -64 17s-51.333 6 -82 6v81c53.333 0 95.5 6.33301 126.5 19s46.5 42.667 46.5 90
c0 31.333 -10.333 57 -31 77c-20.667 18.667 -50.334 28 -89.001 28c-44.667 0 -77 -12.333 -97 -37c-18.667 -26 -30.334 -63 -35.001 -111h-90c0 22 1 40.5 3 55.5s4.66699 27.833 8 38.5c4 18 13 37 27 57c42 58 105.333 87 190 87c65.333 0 116.666 -17.333 153.999 -52
s56 -81.334 56 -140.001c0 -38 -6.66699 -67.667 -20 -89c-14.667 -20.667 -38.667 -38 -72 -52c78 -22 117 -78.667 117 -170c0 -67.333 -22.333 -121.833 -67 -163.5s-102.667 -62.5 -174 -62.5c-86.667 0 -153.334 29.333 -200.001 88c-13.333 22 -23 44 -29 66
c-3.33301 12 -6.16602 25.333 -8.49902 40s-3.5 30.334 -3.5 47.001h92z" />
    <glyph glyph-name="four" unicode="4" 
d="M20 274l324 429h92v-447h99v-90h-99v-166h-90v166h-326v108zM346 567l-237 -311h237v311z" />
    <glyph glyph-name="five" unicode="5" 
d="M35 188l94 0.000976562c15.333 -74 62 -111 140 -111c43.333 0 78.333 13.667 105 41s40 63.333 40 108c0 27.333 -6 52.833 -18 76.5s-29.5 41.667 -52.5 54s-48.5 18.5 -76.5 18.5c-48.667 0 -91.667 -22 -129 -66l-81 7l57 385h361v-90h-293l-31 -193
c40 32 84.667 48 134 48c44 0 82.833 -9.66699 116.5 -29s60.167 -46.666 79.5 -81.999s29 -75 29 -119c0 -74.667 -22.5 -134.834 -67.5 -180.501s-103.5 -68.5 -175.5 -68.5c-67.333 0 -120.833 17.167 -160.5 51.5s-63.5 84.166 -71.5 149.499z" />
    <glyph glyph-name="six" unicode="6" 
d="M497 523h-91.999c-9.33301 36.667 -22.5 63 -39.5 79s-41.833 24 -74.5 24c-40.667 0 -71.834 -12.167 -93.501 -36.5s-37.5 -54.166 -47.5 -89.499c-4.66699 -16 -8.83398 -33.5 -12.501 -52.5s-7.16699 -41.833 -10.5 -68.5c22 28 46.667 49 74 63
c13.333 6.66699 27.5 11.667 42.5 15s31.5 5 49.5 5c64.667 0 117 -20.5 157 -61.5s60 -94.833 60 -161.5c0 -25.333 -2.16699 -48.5 -6.5 -69.5s-11.5 -41.833 -21.5 -62.5c-18.667 -36.667 -45.667 -65.834 -81 -87.501s-76.333 -32.5 -123 -32.5
c-78 0 -137.667 28.833 -179 86.5s-62 142.5 -62 254.5c0 126.667 21.667 223 65 289s107.333 99 192 99c74.667 0 129.334 -26.333 164.001 -79c18 -23.333 31 -61.333 39 -114zM140.001 228c0 -44.667 13 -81 39 -109s59 -42 99 -42c39.333 0 71.833 14.333 97.5 43
s38.5 64.667 38.5 108c0 42 -12.167 76.167 -36.5 102.5s-56.833 39.5 -97.5 39.5c-39.333 0 -72.5 -13.167 -99.5 -39.5s-40.5 -60.5 -40.5 -102.5z" />
    <glyph glyph-name="seven" unicode="7" 
d="M39 701h482.002v-83c-38 -46 -72.5 -92.833 -103.5 -140.5s-58.167 -96.5 -81.5 -146.5c-46.667 -100.667 -81.334 -211 -104.001 -331h-101c20 113.333 53.667 220.5 101 321.5s108.666 197.5 183.999 289.5h-377v90z" />
    <glyph glyph-name="eight" unicode="8" 
d="M149 381c-32.667 15.333 -55.833 34 -69.5 56s-20.5 50.667 -20.5 86c0 55.333 19.667 101.333 59 138s90.666 55 153.999 55c66.667 0 119 -17 157 -51s57 -80.333 57 -139c0 -36 -6.66699 -65.667 -20 -89c-14.667 -22.667 -37 -41.334 -67 -56.001
c39.333 -16 67.666 -38 84.999 -66s26 -63.667 26 -107c0 -42 -10.167 -80.333 -30.5 -115s-48.666 -61 -84.999 -79s-77.166 -27 -122.499 -27c-46.667 0 -88 9.16699 -124 27.5s-63.5 43.833 -82.5 76.5s-28.5 70.334 -28.5 113.001c0 80 37.333 139 112 177zM132.001 201
c0 -37.333 12.998 -67.3311 38.998 -89.998s60.333 -34 103 -34c42 0 75.833 12 101.5 36s38.5 55.667 38.5 95c0 26 -5.66699 48.167 -17 66.5s-27.666 32.666 -48.999 42.999s-46.666 15.5 -75.999 15.5c-41.333 0 -75 -12.333 -101 -37s-39 -56.334 -39 -95.001z
M154.999 517.002c0 -32 10.501 -56.499 31.501 -73.499s49.5 -25.5 85.5 -25.5c36.667 0 65.5 9.16699 86.5 27.5s31.5 44.166 31.5 77.499c0 31.333 -10.333 56.333 -31 75s-49.667 28 -87 28c-36.667 0 -65.334 -9.83301 -86.001 -29.5s-31 -46.167 -31 -79.5z" />
    <glyph glyph-name="nine" unicode="9" 
d="M52 177h90c6.66699 -33.333 19.334 -58.333 38.001 -75s44.667 -25 78 -25c55.333 0 93.666 24.5 114.999 73.5s37 110.5 47 184.5c-34 -61.333 -89.333 -92 -166 -92c-65.333 0 -117.833 21 -157.5 63s-59.5 97 -59.5 165c0 72 21 130.833 63 176.5s97 68.5 165 68.5
c80.667 0 141.334 -29 182.001 -87s61 -142.667 61 -254c0 -122.667 -22.333 -218 -67 -286s-106.334 -102 -185.001 -102c-60 0 -107.5 16.333 -142.5 49s-55.5 79.667 -61.5 141zM132 480c0 -45.333 11.833 -81.166 35.5 -107.499s56.167 -39.5 97.5 -39.5
c40.667 0 73.167 12.833 97.5 38.5s36.5 59.5 36.5 101.5c0 45.333 -11.667 82.166 -35 110.499s-55.666 42.5 -96.999 42.5c-40.667 0 -73.334 -13.333 -98.001 -40s-37 -62 -37 -106z" />
    <glyph glyph-name="colon" unicode=":" horiz-adv-x="293" 
d="M83 112h107v-112h-107v112zM83 524h107v-112h-107v112z" />
    <glyph glyph-name="semicolon" unicode=";" horiz-adv-x="293" 
d="M83 114l106.999 -0.000976562v-103c0 -88.667 -35.667 -140.667 -107 -156v51c18.667 6.66699 31.334 16.334 38.001 29.001c3.33301 7.33301 6 16 8 26s3 23 3 39h-49v114zM82.999 523.999h107v-112h-107v112z" />
    <glyph glyph-name="less" unicode="&#x3c;" horiz-adv-x="596" 
d="M524 107l-474 211v52l474 213v-77l-379 -162l379 -162v-75z" />
    <glyph glyph-name="equal" unicode="=" horiz-adv-x="596" 
d="M50 377v74h474v-74h-474zM50 236v77h474v-77h-474z" />
    <glyph glyph-name="greater" unicode="&#x3e;" horiz-adv-x="596" 
d="M50 583l476 -213v-52l-476 -211v75l379 162l-379 162v77z" />
    <glyph glyph-name="question" unicode="?" 
d="M307 188l-92.001 0.000976562c0 22.667 1.33301 42.5 4 59.5s6.33398 32.167 11.001 45.5c7.33301 20.667 21.666 42.667 42.999 66l58 58c9.33301 8.66699 17 16.667 23 24c2.66699 3.33301 10 13.833 22 31.5s18 38.5 18 62.5c0 35.333 -10.5 63 -31.5 83
s-49.833 30 -86.5 30c-43.333 0 -74.333 -14 -93 -42s-30 -65.667 -34 -113h-92c0 48.667 9 91.167 27 127.5s43 63.666 75 81.999s71 27.5 117 27.5c45.333 0 83.5 -7.66699 114.5 -23s55.5 -37.333 73.5 -66s27 -62.667 27 -102c0 -33.333 -7 -63 -21 -89
c-6 -12 -15.5 -25.5 -28.5 -40.5s-28.167 -30.167 -45.5 -45.5c-29.333 -28.667 -48.166 -48 -56.499 -58s-15.5 -24 -21.5 -42c-2 -6 -4 -16 -6 -30s-3.66699 -29.333 -5 -46zM207.999 112.001h108v-112h-108v112z" />
    <glyph glyph-name="at" unicode="@" horiz-adv-x="1021" 
d="M743 142l67.002 -0.00292969c-40 -53.333 -82.333 -92.5 -127 -117.5s-98.667 -37.5 -162 -37.5c-107.333 0 -196.833 35.5 -268.5 106.5s-107.5 158.167 -107.5 261.5c0 105.333 35.667 194.166 107 266.499s159 108.5 263 108.5c48.667 0 92.667 -7.83301 132 -23.5
s74.5 -37.667 105.5 -66s55.333 -61.166 73 -98.499s26.5 -77 26.5 -119c0 -79.333 -25.333 -144.333 -76 -195c-21.333 -23.333 -48 -43.166 -80 -59.499s-60.333 -24.5 -85 -24.5c-38 0 -57 17 -57 51c-28 -32 -62.333 -48 -103 -48c-45.333 0 -82.833 16.5 -112.5 49.5
s-44.5 75.5 -44.5 127.5c0 40.667 8.66699 78.5 26 113.5s41.333 62.833 72 83.5s65 31 103 31c28 0 51.667 -5.33301 71 -16c18 -11.333 34.667 -30 50 -56l11 59h69l-50 -298l-4 -24c0 -10.667 6.33301 -16 19 -16c13.333 0 30.333 7.16699 51 21.5s36.667 30.833 48 49.5
c26 44 39 90 39 138c0 50.667 -12.333 95.834 -37 135.501s-59 70.834 -103 93.501s-93 34 -147 34c-59.333 0 -112.833 -13.667 -160.5 -41s-85 -65.333 -112 -114s-40.5 -101.667 -40.5 -159c0 -58.667 14.167 -112.667 42.5 -162s67.166 -87.5 116.499 -114.5
s104.333 -40.5 165 -40.5c77.333 0 150.666 33.333 219.999 100zM477.002 229.997c33.333 0 60.667 13.833 82 41.5s32 62.167 32 103.5c0 28 -8 51 -24 69s-37 27 -63 27c-33.333 0 -61.5 -13 -84.5 -39s-34.5 -59 -34.5 -99c0 -30 8.66699 -54.667 26 -74
s39.333 -29 66 -29z" />
    <glyph glyph-name="A" unicode="A" horiz-adv-x="675" 
d="M285 716h105l256 -716h-109l-71 213h-275l-75 -213h-107zM333 607l-109 -313h214z" />
    <glyph glyph-name="B" unicode="B" horiz-adv-x="675" 
d="M86 716l264.004 0.000976562c43.333 0 77.166 -2.66699 101.499 -8s46.166 -15.666 65.499 -30.999c48 -36 72 -84.333 72 -145c0 -68.667 -31.333 -117.334 -94 -146.001c38 -10.667 68.333 -32.334 91 -65.001s34 -71 34 -115c0 -71.333 -26.333 -127 -79 -167
c-18.667 -14 -41.334 -24 -68.001 -30s-65.334 -9 -116.001 -9h-271v716zM186.004 626.001v-207.999h169c44 0 76.5 8.16699 97.5 24.5s31.5 41.166 31.5 74.499c0 38.667 -10.5 66.5 -31.5 83.5s-56.5 25.5 -106.5 25.5h-160zM186.004 328.002v-238h162
c50.667 0 91.167 8.16699 121.5 24.5s45.5 47.5 45.5 93.5c0 80 -52.667 120 -158 120h-171z" />
    <glyph glyph-name="C" unicode="C" horiz-adv-x="718" 
d="M664 493l-97.001 -0.00195312c-26 98 -92.333 147 -199 147c-71.333 0 -127.166 -25.667 -167.499 -77s-60.5 -120.666 -60.5 -207.999c0 -86.667 19.333 -154.667 58 -204s93 -74 163 -74c54.667 0 100.167 16.167 136.5 48.5s59.5 78.833 69.5 139.5h97
c-8.66699 -81.333 -40 -148 -94 -200s-122.667 -78 -206 -78c-68 0 -126.5 14.833 -175.5 44.5s-86.833 72.167 -113.5 127.5s-40 119.333 -40 192c0 108.667 28.667 199 86 271s139 108 245 108c57.333 0 107.5 -9.66699 150.5 -29s77.333 -46.666 103 -81.999
s40.5 -77.333 44.5 -126z" />
    <glyph glyph-name="D" unicode="D" horiz-adv-x="718" 
d="M86 716l242.001 -0.00195312c60 0 105.5 -3.33301 136.5 -10s59.5 -20.667 85.5 -42c38 -29.333 68 -70 90 -122s33 -111.333 33 -178c0 -55.333 -8.33301 -107.666 -25 -156.999s-39.834 -90.166 -69.501 -122.499s-62.667 -54.5 -99 -66.5s-84.5 -18 -144.5 -18h-249
v716zM186.001 625.998l-0.000976562 -536h143c68 0 116.667 10.333 146 31c63.333 46 95 127.667 95 245c0 54 -7.66699 100.167 -23 138.5s-37.666 67.5 -66.999 87.5c-34 22.667 -85.333 34 -154 34h-140z" />
    <glyph glyph-name="E" unicode="E" horiz-adv-x="675" 
d="M86 716h514v-90h-414v-210h383v-90h-383v-236h419v-90h-519v716z" />
    <glyph glyph-name="F" unicode="F" horiz-adv-x="618" 
d="M86 716h490v-90h-390v-214h342v-90h-342v-322h-100v716z" />
    <glyph glyph-name="G" unicode="G" horiz-adv-x="788" 
d="M672 495l-103.003 0.00195312c-26.667 96.667 -91.334 145 -194.001 145c-74 0 -131.667 -25.333 -173 -76s-62 -120.334 -62 -209.001c0 -86 20.833 -153.833 62.5 -203.5s98.834 -74.5 171.501 -74.5c32.667 0 63.834 6.5 93.501 19.5s55.834 33.5 78.501 61.5
c15.333 24 26 45 32 63c2.66699 10 5.16699 22.167 7.5 36.5s3.5 29.166 3.5 44.499h-223v83h313v-381h-64l-23 88c-34 -38 -68.167 -65 -102.5 -81s-76.166 -24 -125.499 -24c-64.667 0 -122.167 15.167 -172.5 45.5s-89 73 -116 128s-40.5 119.167 -40.5 192.5
c0 74.667 14 140.5 42 197.5s68 101.167 120 132.5s112 47 180 47c78.667 0 143.5 -19.5 194.5 -58.5s84.5 -97.833 100.5 -176.5z" />
    <glyph glyph-name="H" unicode="H" horiz-adv-x="718" 
d="M86 716h100v-295h338v295h100v-716h-100v331h-338v-331h-100v716z" />
    <glyph glyph-name="I" unicode="I" horiz-adv-x="293" 
d="M86 716h100v-716h-100v716z" />
    <glyph glyph-name="J" unicode="J" horiz-adv-x="506" 
d="M13 239l98.999 0.000976562c0 -32.667 2 -59.834 6 -81.501s13.5 -40.5 28.5 -56.5s37.167 -24 66.5 -24c36.667 0 63 11.5 79 34.5s24 61.167 24 114.5v490h100v-490c0 -75.333 -12.333 -129.333 -37 -162c-18.667 -24.667 -42.667 -43.667 -72 -57
s-60.666 -20 -93.999 -20c-75.333 0 -129.666 24.667 -162.999 74c-12.667 17.333 -22.334 38.333 -29.001 63c-5.33301 24.667 -8 60 -8 106v9z" />
    <glyph glyph-name="K" unicode="K" horiz-adv-x="675" 
d="M86 716h100v-350l337 350h132l-289 -293l287 -423h-118l-237 359l-112 -111v-248h-100v716z" />
    <glyph glyph-name="L" unicode="L" 
d="M86 716h100v-626h359v-90h-459v716z" />
    <glyph glyph-name="M" unicode="M" horiz-adv-x="841" 
d="M86 716h142l182 -598l181 598h141v-716h-101v574l-177 -574h-93l-175 576v-576h-100v716z" />
    <glyph glyph-name="N" unicode="N" horiz-adv-x="718" 
d="M86 716h113l325 -563v563h100v-716h-112l-326 567v-567h-100v716z" />
    <glyph glyph-name="O" unicode="O" horiz-adv-x="788" 
d="M35 351c0 76.667 14.167 143.666 42.5 200.999s69.166 101.333 122.499 132s115 46 185 46c52.667 0 100.167 -8.5 142.5 -25.5s78.5 -41.5 108.5 -73.5s53 -70 69 -114s24 -95 24 -153c0 -70 -13.5 -133.833 -40.5 -191.5s-67 -103 -120 -136
s-116.167 -49.5 -189.5 -49.5c-71.333 0 -132.666 14.667 -183.999 44s-90.833 71.833 -118.5 127.5s-41.5 119.834 -41.5 192.501zM140 352.999c0 -84 21.6689 -150.999 65.002 -200.999s102.666 -75 177.999 -75c76 0 135.5 25.5 178.5 76.5s64.5 121.167 64.5 210.5
c0 28 -2.33301 54.167 -7 78.5s-12 47.166 -22 68.499c-20 42 -48.5 74 -85.5 96s-79.833 33 -128.5 33c-76.667 0 -136.334 -25.667 -179.001 -77s-64 -121.333 -64 -210z" />
    <glyph glyph-name="P" unicode="P" horiz-adv-x="675" 
d="M86 716h274.999c46.667 0 84.334 -2.66699 113.001 -8c26 -6 48.333 -16.333 67 -31c52.667 -38 79 -93 79 -165c0 -46.667 -10.833 -87.5 -32.5 -122.5s-52.5 -59.833 -92.5 -74.5c-26 -10 -66 -15 -120 -15h-189v-300h-100v716zM185.999 390h155.999
c56 0 98.833 7.5 128.5 22.5s44.5 46.833 44.5 95.5c0 44.667 -13.667 75.5 -41 92.5s-65.666 25.5 -114.999 25.5h-173v-236z" />
    <glyph glyph-name="Q" unicode="Q" horiz-adv-x="788" 
d="M627 85l92.002 -75.998l-49 -62l-105 86c-47.333 -30.667 -109.333 -46 -186 -46c-71.333 0 -132.833 15.667 -184.5 47s-91.167 75.166 -118.5 131.499s-41 118.833 -41 187.5c0 76.667 14.167 143.167 42.5 199.5s69.166 100 122.499 131s115 46.5 185 46.5
c106 0 189.833 -32.833 251.5 -98.5s92.5 -154.834 92.5 -267.501c0 -59.333 -8.83301 -112.5 -26.5 -159.5s-42.834 -86.833 -75.501 -119.5zM554.002 145.002c48 52 71.998 125 71.998 219c0 28 -2.33301 54.167 -7 78.5s-12 47.166 -22 68.499
c-18.667 40.667 -46.667 72.334 -84 95.001s-80.666 34 -129.999 34c-76 0 -135.5 -25.5 -178.5 -76.5s-64.5 -120.5 -64.5 -208.5c0 -85.333 21.833 -153 65.5 -203s102.834 -75 177.501 -75c36 0 69.667 7 101 21l-72 57l52 62z" />
    <glyph glyph-name="R" unicode="R" horiz-adv-x="718" 
d="M86 716l297 -0.000976562c54 0 93.167 -2.33301 117.5 -7s46.5 -14.667 66.5 -30c48.667 -34.667 73 -87.334 73 -158.001c0 -79.333 -33.667 -134.666 -101 -165.999c35.333 -12 58.833 -28.667 70.5 -50s17.5 -59.333 17.5 -114v-79
c0 -43.333 11.333 -80.666 34 -111.999h-118c-11.333 44 -17 77.667 -17 101v90c0 48.667 -11.667 79.667 -35 93s-61.333 20 -114 20h-191v-304h-100v716zM186 625.999v-232h188c52 0 92.167 7.66699 120.5 23s42.5 46.333 42.5 93s-13 77.667 -39 93s-65 23 -117 23h-195z
" />
    <glyph glyph-name="S" unicode="S" horiz-adv-x="675" 
d="M42 239l105.001 -0.00195312c0 -35.333 3.66699 -62.333 11 -81c4.66699 -16.667 18.334 -32.667 41.001 -48c35.333 -22 80.666 -33 135.999 -33c33.333 0 63.666 4.66699 90.999 14s47.833 22.666 61.5 39.999s20.5 37 20.5 59c0 36 -29 64.667 -87 86l-217 81
c-89.333 32 -134 87.333 -134 166c0 34.667 7 64.834 21 90.501s34.333 47.834 61 66.501c22 15.333 49.333 28 82 38c30 8 60.667 12 92 12c106 0 182 -32.333 228 -97c10.667 -15.333 18.834 -33.666 24.501 -54.999s8.5 -47.666 8.5 -78.999h-105
c0 36.667 -5.33301 64 -16 82c-10.667 16 -29.334 29.833 -56.001 41.5s-55.334 17.5 -86.001 17.5c-45.333 0 -81.833 -10.5 -109.5 -31.5s-41.5 -46.5 -41.5 -76.5c0 -21.333 5.33301 -37.833 16 -49.5s30.334 -22.834 59.001 -33.501l229 -85
c90.667 -33.333 136 -87.666 136 -162.999c0 -33.333 -8.5 -65 -25.5 -95s-40.5 -55 -70.5 -75c-42 -29.333 -104 -44 -186 -44c-93.333 0 -164.833 19.667 -214.5 59s-74.5 95.666 -74.5 168.999v24z" />
    <glyph glyph-name="T" unicode="T" horiz-adv-x="618" 
d="M13 716h574v-90h-237v-626h-102v626h-235v90z" />
    <glyph glyph-name="U" unicode="U" horiz-adv-x="718" 
d="M77 716h100.001v-446c0 -128.667 60 -193 180 -193c57.333 0 101.166 17.167 131.499 51.5s45.5 80.5 45.5 138.5v449h99v-449c0 -85.333 -24.5 -153.333 -73.5 -204s-117.167 -76 -204.5 -76c-88.667 0 -157.167 23.667 -205.5 71s-72.5 114.333 -72.5 201v457z" />
    <glyph glyph-name="V" unicode="V" horiz-adv-x="675" 
d="M0 716h110l219 -602l216 602h110l-276 -716h-103z" />
    <glyph glyph-name="W" unicode="W" horiz-adv-x="944" 
d="M7 716h106.999l105 -427c6.66699 -17.333 16 -65.333 28 -144l23 99l10 45l128 427h102l127 -427l11 -38l12 -51l12 -55c10.667 62.667 20.334 110.667 29.001 144l110 427h109l-197 -716h-99l-166 581l-162 -581h-105z" />
    <glyph glyph-name="X" unicode="X" horiz-adv-x="675" 
d="M7 0l262 364l-241 352h121l184 -273l191 273h118l-250 -348l256 -368h-124l-195 291l-206 -291h-116z" />
    <glyph glyph-name="Y" unicode="Y" horiz-adv-x="675" 
d="M0 716h118l213 -339l206 339h118l-274 -433v-283h-101v283z" />
    <glyph glyph-name="Z" unicode="Z" horiz-adv-x="618" 
d="M24 88l430 538h-401v90h523v-89l-431 -537h431v-90h-552v88z" />
    <glyph glyph-name="bracketleft" unicode="[" horiz-adv-x="293" 
d="M64 716h173v-90h-82v-751h82v-90h-173v931z" />
    <glyph glyph-name="backslash" unicode="\" horiz-adv-x="293" 
d="M94 716l202 -860h-86l-203 860h87z" />
    <glyph glyph-name="bracketright" unicode="]" horiz-adv-x="293" 
d="M208 -215h-173v90h83v751h-83v90h173v-931z" />
    <glyph glyph-name="asciicircum" unicode="^" horiz-adv-x="482" 
d="M145 499h-60l117 219h57l118 -219h-61l-86 149z" />
    <glyph glyph-name="underscore" unicode="_" 
d="M0 -86h545v-76h-545v76z" />
    <glyph glyph-name="grave" unicode="`" horiz-adv-x="350" 
d="M188 736l68 -144h-74l-110 144h116z" />
    <glyph glyph-name="a" unicode="a" 
d="M64 361c0 21.333 2.50195 40.1689 7.50195 56.502s12.5 31.833 22.5 46.5c34.667 48.667 94.667 73 180 73c64 0 113.5 -12 148.5 -36s52.5 -67.667 52.5 -131v-247c0 -18.667 2.16699 -32.5 6.5 -41.5s12.5 -13.5 24.5 -13.5l9 2h17v-68
c-10 -3.33301 -19.833 -6 -29.5 -8s-18.167 -3 -25.5 -3c-50.667 0 -78.334 26.333 -83.001 79c-51.333 -55.333 -111.666 -83 -180.999 -83c-50.667 0 -91.834 14.5 -123.501 43.5s-47.5 66.167 -47.5 111.5c0 73.333 29.833 120.666 89.5 141.999s144.5 37 254.5 47v26
c0 35.333 -8.33301 60.333 -25 75s-45.667 22 -87 22c-37.333 0 -65.333 -7.33301 -84 -22s-29.334 -38.334 -32.001 -71.001h-94zM385.002 261.003c-100.667 -14 -164 -27.333 -190 -40c-36.667 -13.333 -55 -37.333 -55 -72c0 -26 8.66699 -45.667 26 -59
c16.667 -14.667 40 -22 70 -22c40 0 74.833 12 104.5 36s44.5 52.667 44.5 86v71z" />
    <glyph glyph-name="b" unicode="b" 
d="M64 716h90.999v-260c26 29.333 50.833 50.166 74.5 62.499s50.167 18.5 79.5 18.5c39.333 0 74.333 -11 105 -33s54.334 -53.667 71.001 -95s25 -88 25 -140c0 -54.667 -8.83301 -103.667 -26.5 -147s-42.5 -76.666 -74.5 -99.999s-68.333 -35 -109 -35
c-56.667 0 -107 24 -151 72v-57h-85v714zM279.999 454c-39.333 0 -71 -17.167 -95 -51.5s-36 -81.5 -36 -141.5c0 -58.667 12 -105.5 36 -140.5s55.667 -52.5 95 -52.5c41.333 0 74 17.167 98 51.5s36 81.5 36 141.5s-12 107.167 -36 141.5s-56.667 51.5 -98 51.5z" />
    <glyph glyph-name="c" unicode="c" horiz-adv-x="506" 
d="M399 188l93.998 -0.00195312c-7.33301 -52.667 -20.666 -92.667 -39.999 -120c-44.667 -56.667 -103 -85 -175 -85c-76 0 -135.5 24 -178.5 72s-64.5 114.333 -64.5 199c0 89.333 21.167 158.833 63.5 208.5s101.5 74.5 177.5 74.5c61.333 0 110.833 -17.167 148.5 -51.5
s60.5 -82.166 68.5 -143.499h-94c-6 35.333 -20.167 62.833 -42.5 82.5s-49.166 29.5 -80.499 29.5c-44.667 0 -80 -16.5 -106 -49.5s-39 -78.833 -39 -137.5c0 -63.333 12.833 -112.666 38.5 -147.999s61.167 -53 106.5 -53c63.333 0 104.333 40.667 123 122z" />
    <glyph glyph-name="d" unicode="d" 
d="M392 471l0.000976562 244.999h90v-714h-86v66c-24.667 -30 -48.334 -51 -71.001 -63s-50 -18 -82 -18c-40 0 -75.833 10.833 -107.5 32.5s-56.334 52.834 -74.001 93.501s-26.5 87.667 -26.5 141c0 82.667 19.333 150.5 58 203.5s90.334 79.5 155.001 79.5
c31.333 0 56.666 -4.33301 75.999 -13c18.667 -7.33301 41.334 -25 68.001 -53zM265.001 67.999c42.667 0 75.333 16.5 98 49.5s34 80.833 34 143.5c0 41.333 -4.83301 76.333 -14.5 105s-24.167 50.5 -43.5 65.5s-44 22.5 -74 22.5c-89.333 0 -134 -63.667 -134 -191
c0 -130 44.667 -195 134 -195z" />
    <glyph glyph-name="e" unicode="e" 
d="M510 234l-380.999 0.000976562c0 -54 13.167 -95.167 39.5 -123.5s62.833 -42.5 109.5 -42.5c71.333 0 114.666 35 129.999 105h94c-12 -58 -38.5 -103.5 -79.5 -136.5s-90.5 -49.5 -148.5 -49.5c-74 0 -132.333 24.5 -175 73.5s-64 115.833 -64 200.5
c0 84 22 150.667 66 200s103.667 74 179 74c77.333 0 135 -23.833 173 -71.5s57 -110.834 57 -189.501v-40zM418.001 315.001c0 21.333 -3.49902 40.5 -10.499 57.5s-17.167 32.167 -30.5 45.5c-24 24 -57 36 -99 36c-82.667 0 -131.334 -46.333 -146.001 -139h286z" />
    <glyph glyph-name="f" unicode="f" horiz-adv-x="293" 
d="M7 524h65v37c0 56 8 96.667 24 122c23.333 31.333 57 47 101 47c23.333 0 42.333 -2.33301 57 -7v-81c-11.333 4 -23 6 -35 6c-19.333 0 -33 -5.16699 -41 -15.5s-12 -29.833 -12 -58.5l-2 -24l-2 -26h92v-77h-92v-447h-90v447h-65v77z" />
    <glyph glyph-name="g" unicode="g" 
d="M392 453l0.00195312 70.998h88v-443c0 -64.667 -5.5 -117.5 -16.5 -158.5s-33.167 -74.167 -66.5 -99.5s-80.333 -38 -141 -38c-62 0 -109 12.5 -141 37.5s-52 65.833 -60 122.5h90c7.33301 -29.333 19.166 -49.5 35.499 -60.5s40.833 -16.5 73.5 -16.5
c48.667 0 82.834 14.333 102.501 43s29.5 79.334 29.5 152.001c-21.333 -27.333 -43.5 -46.833 -66.5 -58.5s-49.833 -17.5 -80.5 -17.5c-62.667 0 -112.334 23.833 -149.001 71.5s-55 112.834 -55 195.501c0 86 18.167 154.667 54.5 206s86.833 77 151.5 77
c63.333 0 113.666 -28 150.999 -84zM131.002 260.998c0 -57.333 11.834 -103.833 35.501 -139.5s55.167 -53.5 94.5 -53.5s70.666 17.667 93.999 53s35 82 35 140c0 58.667 -11.5 105.5 -34.5 140.5s-54.5 52.5 -94.5 52.5c-40.667 0 -72.5 -17.333 -95.5 -52
s-34.5 -81.667 -34.5 -141z" />
    <glyph glyph-name="h" unicode="h" 
d="M64 716h90.999v-249c46 46.667 98.667 70 158 70c60.667 0 104 -16.5 130 -49.5s39 -80.833 39 -143.5v-344h-90v324c0 47.333 -7.66699 80.833 -23 100.5s-40.666 29.5 -75.999 29.5c-48 0 -85 -18.333 -111 -55c-10.667 -14 -18 -29 -22 -45
c-3.33301 -18 -5 -43.333 -5 -76v-278h-91v716z" />
    <glyph glyph-name="i" unicode="i" horiz-adv-x="237" 
d="M64 716h91v-103h-91v103zM64 524h91v-524h-91v524z" />
    <glyph glyph-name="j" unicode="j" horiz-adv-x="237" 
d="M-20 -127c8 -2 14 -3.33301 18 -4s10.333 -1 19 -1c19.333 0 32 5.5 38 16.5s9 33.5 9 67.5v572h91v-585c0 -102.667 -40.667 -154 -122 -154l-27 2l-26 1v85zM64 716h91v-103h-91v103z" />
    <glyph glyph-name="k" unicode="k" horiz-adv-x="506" 
d="M64 716h91v-403l213 211h118l-199 -195l204 -329h-110l-155 267l-71 -66v-201h-91v716z" />
    <glyph glyph-name="l" unicode="l" horiz-adv-x="237" 
d="M64 716h91v-716h-91v716z" />
    <glyph glyph-name="m" unicode="m" horiz-adv-x="841" 
d="M64 524l90.998 -0.00195312v-66c12.667 14 25.334 26 38.001 36s24.667 18.333 36 25c22 12 48 18 78 18c32 0 57.667 -6.16699 77 -18.5s37.333 -32.5 54 -60.5c25.333 27.333 50 47.333 74 60s51.333 19 82 19c106 0 159 -60 159 -180v-357h-91v342
c0 39.333 -6.83301 67.833 -20.5 85.5s-36.167 26.5 -67.5 26.5c-23.333 0 -45.666 -7 -66.999 -21c-21.333 -15.333 -35 -32.666 -41 -51.999c-8.66699 -18.667 -13 -53 -13 -103v-278h-91v329c0 48 -5 81 -15 99c-11.333 17.333 -32 26 -62 26c-28 0 -53 -7.5 -75 -22.5
s-38 -36.167 -48 -63.5c-4.66699 -13.333 -7 -42.666 -7 -87.999v-280h-91v524z" />
    <glyph glyph-name="n" unicode="n" 
d="M64 524l91.0029 -0.000976562v-70c26.667 30.667 51.667 52.167 75 64.5s52 18.5 86 18.5c37.333 0 69.666 -8.5 96.999 -25.5s45.666 -38.667 54.999 -65s14 -64.166 14 -113.499v-333h-90v318c0 50 -8 85 -24 105c-14.667 20.667 -41 31 -79 31
c-30.667 0 -56.834 -7.16699 -78.501 -21.5s-36.5 -33.833 -44.5 -58.5c-5.33301 -14.667 -8.33301 -26.667 -9 -36l-2 -64v-274h-91v524z" />
    <glyph glyph-name="o" unicode="o" 
d="M35 261c0 86.667 21.168 154.333 63.501 203s100.166 73 173.499 73s131.333 -24 174 -72s64 -116 64 -204c0 -86 -21.167 -153.167 -63.5 -201.5s-100.5 -72.5 -174.5 -72.5s-132 24.5 -174 73.5s-63 115.833 -63 200.5zM131.001 260.999
c0 -60 12.6699 -107.168 38.0029 -141.501s59.666 -51.5 102.999 -51.5c45.333 0 80.333 17.333 105 52s37 83 37 145c0 40.667 -5.66699 74.667 -17 102c-10.667 28.667 -26.834 50.334 -48.501 65.001s-47.167 22 -76.5 22s-54.333 -7.33301 -75 -22
s-36.834 -37.167 -48.501 -67.5s-17.5 -64.833 -17.5 -103.5z" />
    <glyph glyph-name="p" unicode="p" 
d="M64 524l91 0.00195312v-62c21.333 25.333 44.333 44.666 69 57.999c24 11.333 51 17 81 17c63.333 0 113.333 -23.833 150 -71.5s55 -113.834 55 -198.501s-18.5 -152.5 -55.5 -203.5s-87.833 -76.5 -152.5 -76.5c-32.667 0 -60 5.5 -82 16.5s-43.667 28.167 -65 51.5
v-257h-91v726zM283 454.002c-40 0 -72.001 -17 -96.001 -51s-36 -81.333 -36 -142c0 -58 11.833 -104.667 35.5 -140s55.834 -53 96.501 -53c38.667 0 70.667 17 96 51c23.333 34.667 35 82 35 142c0 60.667 -11.833 108 -35.5 142s-55.5 51 -95.5 51z" />
    <glyph glyph-name="q" unicode="q" 
d="M392 458l0.000976562 66h90v-726h-90v266c-40 -51.333 -91 -77 -153 -77s-111.5 24.333 -148.5 73s-55.5 114 -55.5 196c0 28.667 2 55 6 79s10.667 47 20 69c17.333 42 42.166 74.667 74.499 98s68.833 35 109.5 35c67.333 0 116.333 -26.333 147 -79zM132.001 261
c0 -57.333 11.333 -103.833 34 -139.5s53.667 -53.5 93 -53.5c38 0 68.667 17.667 92 53s35 82 35 140s-11.667 104.667 -35 140s-54 53 -92 53s-68.667 -17.667 -92 -53s-35 -82 -35 -140z" />
    <glyph glyph-name="r" unicode="r" horiz-adv-x="350" 
d="M64 524h91v-86c33.333 66 76 99 128 99h11l11 -1l15 -2v-96l-27 2c-52 0 -88 -16.333 -108 -49s-30 -76.667 -30 -132v-259h-91v524z" />
    <glyph glyph-name="s" unicode="s" horiz-adv-x="506" 
d="M35 171l94 0.00195312c0 -35.333 10.333 -61.333 31 -78c18.667 -16.667 47.667 -25 87 -25c32.667 0 59.5 7.16699 80.5 21.5s31.5 32.5 31.5 54.5c0 12 -3.16699 21.167 -9.5 27.5s-19.833 14.166 -40.5 23.499l-164 70c-33.333 15.333 -57 32.5 -71 51.5
s-21 41.833 -21 68.5c0 44 17.833 80.333 53.5 109s82.5 43 140.5 43c35.333 0 67.5 -6 96.5 -18s52.833 -31 71.5 -57c16.667 -25.333 25 -56 25 -92h-90c0 56 -35.667 84 -107 84c-30 0 -53.833 -5.66699 -71.5 -17s-26.5 -26.333 -26.5 -45s15 -34 45 -46l154 -61
c41.333 -17.333 70 -35.5 86 -54.5s24 -44.167 24 -75.5c0 -33.333 -8.16699 -62.333 -24.5 -87s-40.5 -44.334 -72.5 -59.001s-69.333 -22 -112 -22c-66 0 -117.5 16.167 -154.5 48.5s-55.5 77.5 -55.5 135.5z" />
    <glyph glyph-name="t" unicode="t" horiz-adv-x="293" 
d="M13 524h70v127h90v-127h86v-77h-86v-318c0 -25.333 4 -42 12 -50c6.66699 -8.66699 21.667 -13 45 -13h29v-75l-64 -4c-42.667 0 -72 10.667 -88 32s-24 61 -24 119v309h-70v77z" />
    <glyph glyph-name="u" unicode="u" 
d="M64 524l91 -0.000976562v-333c0 -45.333 7.66699 -77.166 23 -95.499s41.333 -27.5 78 -27.5c44.667 0 80 18.333 106 55c20 28 30 73 30 135v266h90v-522h-85v81c-32 -64 -86.333 -96 -163 -96c-64 0 -108.333 17.167 -133 51.5s-37 83.5 -37 147.5v338z" />
    <glyph glyph-name="v" unicode="v" horiz-adv-x="506" 
d="M110 524l137 -414l138 414h99l-195 -524h-90l-192 524h103z" />
    <glyph glyph-name="w" unicode="w" horiz-adv-x="718" 
d="M7 524l100.002 -0.000976562l75 -307c9.33301 -36 16.666 -69.667 21.999 -101c6.66699 40.667 14 74.334 22 101.001l78 307h103l75 -303c5.33301 -18 12.666 -51.333 21.999 -100l22 100l81 303h96l-158 -524h-91l-101 403l-103 -403h-92z" />
    <glyph glyph-name="x" unicode="x" horiz-adv-x="506" 
d="M188 269l-171 255h112l114 -182l118 182h112l-173 -250l184 -274h-116l-125 201l-127 -201h-109z" />
    <glyph glyph-name="y" unicode="y" horiz-adv-x="506" 
d="M109 524l139 -415l138 415h98l-210 -583c-21.333 -52.667 -41.333 -91.834 -60 -117.501s-46.334 -38.5 -83.001 -38.5c-23.333 0 -48 3 -74 9v85c10.667 -3.33301 20.334 -6 29.001 -8s16.667 -3 24 -3c21.333 0 38 7.33301 50 22c11.333 16.667 25 50.334 41 101.001
l-194 533h102z" />
    <glyph glyph-name="z" unicode="z" horiz-adv-x="506" 
d="M35 72l294 370h-270v82h388v-73l-294 -368h301v-83h-419v72z" />
    <glyph glyph-name="braceleft" unicode="{" horiz-adv-x="350" 
d="M123 248c32.667 -8 55.333 -20.499 68 -37.499s19 -44.167 19 -81.5v-239c0 -56.667 28 -91 84 -103c-40 0 -72 2.66699 -96 8s-43 17.833 -57 37.5s-21 49.167 -21 88.5v230c0 53.333 -27 85.666 -81 96.999c54 14 81 47.333 81 100v246c0 46 13.833 77.833 41.5 95.5
s65.834 26.5 114.501 26.5h18c-27.333 -10.667 -44.333 -18.167 -51 -22.5s-14 -12.5 -22 -24.5c-7.33301 -13.333 -11 -32.666 -11 -57.999v-249c0 -32 -6.33301 -56.333 -19 -73s-35.334 -30.334 -68.001 -41.001z" />
    <glyph glyph-name="bar" unicode="|" horiz-adv-x="270" 
d="M90 716h77v-860h-77v860z" />
    <glyph glyph-name="braceright" unicode="}" horiz-adv-x="350" 
d="M204 248c-33.333 11.333 -56 25.498 -68 42.498s-18 40.833 -18 71.5v249c0 32 -6.66699 54.667 -20 68s-34.333 25.666 -63 36.999c56.667 0 99.667 -7 129 -21s44 -47.667 44 -101v-246c0 -51.333 27 -84.666 81 -99.999c-54 -11.333 -81 -43.666 -81 -96.999v-230
c0 -56 -13.333 -92.333 -40 -109s-71 -25 -133 -25c55.333 12 83 46.333 83 103v239c0 34.667 6 60.834 18 78.501s34.667 31.167 68 40.5z" />
    <glyph glyph-name="asciitilde" unicode="~" horiz-adv-x="596" 
d="M488 670l38.0029 -28.002l-33 -53c-10 -15.333 -19 -28 -27 -38c-17.333 -20 -40.333 -30 -69 -30c-26 0 -62.167 11.333 -108.5 34s-82.5 34 -108.5 34c-18.667 0 -35.334 -5.5 -50.001 -16.5s-29.334 -30.833 -44.001 -59.5l-36 30
c30 52.667 53.167 87.334 69.5 104.001s37.166 25 62.499 25c16.667 0 33.667 -2.66699 51 -8l50 -22c3.33301 -1.33301 15 -6.66602 35 -15.999c14 -6 22.333 -9.66699 25 -11c21.333 -8.66699 39.333 -13 54 -13c21.333 0 37.833 4.66699 49.5 14s25.5 27.333 41.5 54z
" />
    <glyph glyph-name="nonbreakingspace" unicode="&#xa0;" horiz-adv-x="244" 
 />
    <glyph glyph-name="exclamdown" unicode="&#xa1;" horiz-adv-x="662" 
d="M642 716l-388 -716h-116l140 241l-250 475h121l186 -377l189 377h118zM337 751c-34 0 -64 9.99902 -90 29.999s-39 45.333 -39 76h88l-2 -3c0 -8 4.83301 -15 14.5 -21s19.834 -9 30.501 -9s19.667 2.83301 27 8.5s11.666 12.834 12.999 21.501l88 3
c0 -31.333 -12.833 -56.833 -38.5 -76.5s-56.167 -29.5 -91.5 -29.5z" />
    <glyph glyph-name="cent" unicode="&#xa2;" horiz-adv-x="495" 
d="M109 524l139 -415l138 415h98l-210 -583c-21.333 -52.667 -41.333 -91.834 -60 -117.501s-46.334 -38.5 -83.001 -38.5c-23.333 0 -48 3 -74 9v85c10.667 -3.33301 20.334 -6 29.001 -8s16.667 -3 24 -3c21.333 0 38 7.33301 50 22c11.333 16.667 25 50.334 41 101.001
l-194 533h102zM248 598c-40.667 0 -72.5 11.668 -95.5 35.001s-34.5 50.333 -34.5 81h81c0 -8.66699 4 -18.834 12 -30.501s20.333 -17.5 37 -17.5s29 5.33301 37 16c6 10 9.66699 20.667 11 32h79c0 -30 -11 -56.833 -33 -80.5s-53.333 -35.5 -94 -35.5z" />
    <glyph glyph-name="sterling" unicode="&#xa3;" horiz-adv-x="370" 
d="M31 114l109 0.000976562v-103c0 -89.333 -36.333 -141.333 -109 -156v51c19.333 6.66699 32.333 16.667 39 30c4 6.66699 7.16699 15.167 9.5 25.5s3.5 23.166 3.5 38.499h-52v114zM188 114.001h108v-103c0 -88.667 -36 -140.667 -108 -156v51c18 6.66699 31 17 39 31
s12 35 12 63h-51v114z" />
    <glyph glyph-name="currency" unicode="&#xa4;" horiz-adv-x="552" 
d="M171 499c17.333 11.333 32.334 19.3311 45.001 23.998s31.334 7 56.001 7c25.333 0 43.5 -1.66699 54.5 -5s21.167 -7.66602 30.5 -12.999c3.33301 -2 10 -6.33301 20 -13l77 77l52 -50l-79 -79c13.333 -20 22 -36 26 -48c3.33301 -14.667 5 -33 5 -55
c0 -26 -1.33301 -43.333 -4 -52s-6.83398 -17.5 -12.501 -26.5s-10.5 -17.167 -14.5 -24.5l79 -79l-52 -50l-77 78c-8.66699 -5.33301 -17.834 -10.666 -27.501 -15.999s-17.5 -9 -23.5 -11c-12 -4.66699 -30 -7 -54 -7c-20 0 -36.833 2.16699 -50.5 6.5
s-30.5 13.5 -50.5 27.5l-79 -78l-52 50l80 79c-7.33301 9.33301 -13.333 20 -18 32c-5.33301 9.33301 -9 21.333 -11 36l-3 35c0 22 2.16699 40 6.5 54s12.833 30.333 25.5 49l-80 79l52 50zM178.001 343.998c0 -27.333 9.33203 -51.668 27.999 -73.001s40.667 -32 66 -32
c28.667 0 53.334 10.333 74.001 31s31 45.334 31 74.001c0 25.333 -10 47.666 -30 66.999s-44.333 29 -73 29c-24 0 -46 -9.66699 -66 -29s-30 -41.666 -30 -66.999z" />
    <glyph glyph-name="brokenbar" unicode="&#xa6;" horiz-adv-x="270" 
d="M90 716h77v-860h-77v860z" />
    <glyph glyph-name="section" unicode="&#xa7;" 
d="M140 466c-15.333 18.667 -26.3389 35.001 -33.0059 49.001c-2 6 -4 13 -6 21s-3 18.333 -3 31c0 47.333 16.833 86.333 50.5 117s76.834 46 129.501 46c60 0 104.333 -16.333 133 -49c14.667 -17.333 25.834 -37.333 33.501 -60s11.5 -49.334 11.5 -80.001h-90
c0 35.333 -8 62 -24 80s-39.333 27 -70 27c-25.333 0 -45.666 -6.66699 -60.999 -20s-23 -31.333 -23 -54c0 -17.333 6.5 -33.166 19.5 -47.499s36.5 -31.5 70.5 -51.5l88 -52c92 -51.333 138 -112.666 138 -183.999c0 -34 -7.16699 -62.667 -21.5 -86
s-39.166 -46 -74.499 -68c18 -19.333 29.667 -36 35 -50c6.66699 -14 10 -33.667 10 -59c0 -48.667 -17.167 -88.167 -51.5 -118.5s-78.5 -45.5 -132.5 -45.5c-18.667 0 -34.667 1.33301 -48 4s-27.666 8 -42.999 16c-28.667 13.333 -50.667 30.666 -66 51.999
c-10 14 -17.667 30.5 -23 49.5s-8 42.5 -8 70.5h92c0 -19.333 2.33301 -35.833 7 -49.5s11.334 -25.5 20.001 -35.5c16 -17.333 40.667 -26 74 -26c26 0 47 7 63 21s24 31.667 24 53c0 13.333 -3.16699 25.166 -9.5 35.499s-13.833 19.833 -22.5 28.5l-33 25l-37 23l-86 52
c-88.667 54.667 -133 116.334 -133 185.001c0 34 7.66699 62.167 23 84.5s41 44.166 77 65.499zM190.994 420.001c-40 -28 -60 -59.333 -60 -94c0 -37.333 22 -70 66 -98l156 -101c40.667 28 61 59.333 61 94c0 22.667 -7.5 43.167 -22.5 61.5s-39.5 38.833 -73.5 61.5z" />
    <glyph glyph-name="dieresis" unicode="&#xa8;" horiz-adv-x="684" 
d="M86 716h514v-90h-414v-210h383v-90h-383v-236h419v-90h-519v716zM204 922h90v-116h-90v116zM464 922v-116h-90v116h90z" />
    <glyph glyph-name="copyright" unicode="&#xa9;" horiz-adv-x="799" 
d="M734 359c0 -67.333 -16.8311 -129.502 -50.498 -186.502s-78.834 -102.167 -135.501 -135.5s-118.667 -50 -186 -50c-34 0 -66.333 4 -97 12s-60.667 20.667 -90 38c-56.667 33.333 -101.5 78.5 -134.5 135.5s-49.5 119.167 -49.5 186.5c0 52 9.66699 100.333 29 145
s46.166 84.167 80.499 118.5s74 60.833 119 79.5s92.5 28 142.5 28c50.667 0 99 -9.66699 145 -29s86 -46.166 120 -80.499s60 -73.166 78 -116.499c10 -24 17.333 -47.167 22 -69.5s7 -47.5 7 -75.5zM679.002 358.998c0 28.667 -3.33203 56.1699 -9.99902 82.5029
s-17 51.5 -31 75.5s-31 46 -51 66s-42 37.333 -66 52c-48 28 -101 42 -159 42c-56 0 -108.833 -14.333 -158.5 -43s-88.334 -67.334 -116.001 -116.001s-41.5 -101.667 -41.5 -159c0 -58 14 -111.667 42 -161s66.667 -88 116 -116s102 -42 158 -42
c57.333 0 110.333 14.167 159 42.5s87.167 67.166 115.5 116.499s42.5 102.666 42.5 159.999zM543.003 438.001h-63c-12.667 56.667 -50.667 85 -114 85c-40.667 0 -72.5 -14.333 -95.5 -43s-34.5 -69 -34.5 -121c0 -49.333 11.333 -88.333 34 -117s53 -43 91 -43
c31.333 0 57.666 10 78.999 30s34 46.667 38 80h65c-6 -53.333 -24.833 -94.833 -56.5 -124.5s-72.5 -44.5 -122.5 -44.5c-59.333 0 -106.666 19.5 -141.999 58.5s-53 91.833 -53 158.5c0 68 17.333 122.333 52 163s82.334 61 143.001 61c35.333 0 65.666 -5.5 90.999 -16.5
s46 -27.5 62 -49.5c14 -20 22.667 -45.667 26 -77z" />
    <glyph glyph-name="guillemotleft" unicode="&#xab;" horiz-adv-x="552" 
d="M445 64l-158 160v91l158 156v-110l-90 -91l90 -88v-118zM254 64l-160 160v91l160 156v-110l-92 -91l92 -88v-118z" />
    <glyph glyph-name="logicalnot" unicode="&#xac;" horiz-adv-x="618" 
d="M50 228v74h476v-302h-77v228h-399z" />
    <glyph glyph-name="minus" unicode="&#xad;" 
d="M0 -86h545v-76h-545v76z" />
    <glyph glyph-name="registered" unicode="&#xae;" horiz-adv-x="799" 
d="M734 359c0 -67.333 -16.8311 -129.502 -50.498 -186.502s-78.834 -102.167 -135.501 -135.5s-118.667 -50 -186 -50c-34 0 -66.333 4 -97 12s-60.667 20.667 -90 38c-56.667 33.333 -101.5 78.5 -134.5 135.5s-49.5 119.167 -49.5 186.5c0 52 9.66699 100.333 29 145
s46.166 84.167 80.499 118.5s74 60.833 119 79.5s92.5 28 142.5 28c50.667 0 99 -9.66699 145 -29s86 -46.166 120 -80.499s60 -73.166 78 -116.499c10 -24 17.333 -47.167 22 -69.5s7 -47.5 7 -75.5zM679.002 358.998c0 28.667 -3.33203 56.1699 -9.99902 82.5029
s-17 51.5 -31 75.5s-31 46 -51 66s-42 37.333 -66 52c-48 28 -101 42 -159 42c-56 0 -108.833 -14.333 -158.5 -43s-88.334 -67.334 -116.001 -116.001s-41.5 -101.667 -41.5 -159c0 -58 14 -111.667 42 -161s66.667 -88 116 -116s102 -42 158 -42
c57.333 0 110.333 14.167 159 42.5s87.167 67.166 115.5 116.499s42.5 102.666 42.5 159.999zM208.003 149.001l0.00195312 423.002h177c47.333 0 84.666 -7.66699 111.999 -23c26.667 -16.667 40 -48.334 40 -95.001c0 -24 -3.66699 -42 -11 -54
c-2.66699 -6.66699 -7.33398 -12.834 -14.001 -18.501s-16 -12.5 -28 -20.5c24 -12 38 -25.333 42 -40c0.666992 -7.33301 2 -18 4 -32s3 -30.333 3 -49c0 -19.333 2 -36.333 6 -51s9.66699 -28 17 -40h-78c-5.33301 20 -8 47.667 -8 83c0 34.667 -5.16699 59 -15.5 73
s-34.833 21 -73.5 21h-109v-177h-64zM272.005 513.003l0.000976562 -128h107c34.667 0 59 4.83301 73 14.5s21 26.167 21 49.5c0 24 -6.33301 41 -19 51c-12.667 8.66699 -36.334 13 -71.001 13h-111z" />
    <glyph glyph-name="macron" unicode="&#xaf;" horiz-adv-x="359" 
d="M204 868h109v-110h-109v110zM31 868h109v-110h-109v110zM120 716h99v-716h-99v716z" />
    <glyph glyph-name="degree" unicode="&#xb0;" horiz-adv-x="473" 
d="M362 567c0 -44 -15.498 -82 -46.498 -114s-69.833 -48 -116.5 -48c-44.667 0 -83.167 16.333 -115.5 49s-48.5 70.334 -48.5 113.001c0 16 1.66699 30.333 5 43s9.33301 26 18 40c15.333 24.667 35.666 44.167 60.999 58.5s52.666 21.5 81.999 21.5
c44 0 82.333 -15.667 115 -47c30.667 -32.667 46 -71.334 46 -116.001zM302.002 567c0 28.667 -9.66602 53.499 -28.999 74.499s-43.333 31.5 -72 31.5s-53.334 -10.167 -74.001 -30.5s-31 -45.5 -31 -75.5s10.667 -54.667 32 -74c20.667 -20.667 45 -31 73 -31
s51.833 10.333 71.5 31s29.5 45.334 29.5 74.001z" />
    <glyph glyph-name="plusminus" unicode="&#xb1;" 
d="M35 305v78h201v191h73v-191h201v-78h-201v-193h-73v193h-201zM35 0v77h475v-77h-475z" />
    <glyph glyph-name="twosuperior" unicode="&#xb2;" horiz-adv-x="293" 
d="M86 716h100v-716h-100v716zM83 868h107v-110h-107v110z" />
    <glyph glyph-name="threesuperior" unicode="&#xb3;" horiz-adv-x="237" 
d="M64 716h91v-103h-91v103zM64 524h91v-524h-91v524z" />
    <glyph glyph-name="acute" unicode="&#xb4;" horiz-adv-x="247" 
d="M55 716h107v-103c0 -88.667 -35.667 -141 -107 -157v52c17.333 8 29.5 17.833 36.5 29.5s12.167 33.167 15.5 64.5h-52v114z" />
    <glyph glyph-name="paragraph" unicode="&#xb6;" 
d="M239 -142l-0.000976562 477c-59.333 0 -107 16 -143 48s-54 78 -54 138c0 38.667 9.83301 73.5 29.5 104.5s46.834 54.5 81.501 70.5c30 13.333 71.667 20 125 20h226v-66h-26v-792h-86v792h-64v-792h-89z" />
    <glyph glyph-name="periodcentered" unicode="&#xb7;" horiz-adv-x="280" 
d="M83 320h107v-110h-107v110z" />
    <glyph glyph-name="periodcentered" unicode="&#x2219;" horiz-adv-x="280" 
d="M83 320h107v-110h-107v110z" />
    <glyph glyph-name="cedilla" unicode="&#xb8;" 
d="M510 234l-380.999 0.000976562c0 -54 13.167 -95.167 39.5 -123.5s62.833 -42.5 109.5 -42.5c71.333 0 114.666 35 129.999 105h94c-12 -58 -38.5 -103.5 -79.5 -136.5s-90.5 -49.5 -148.5 -49.5c-74 0 -132.333 24.5 -175 73.5s-64 115.833 -64 200.5
c0 84 22 150.667 66 200s103.667 74 179 74c77.333 0 135 -23.833 173 -71.5s57 -110.834 57 -189.501v-40zM418.001 315.001c0 21.333 -3.49902 40.5 -10.499 57.5s-17.167 32.167 -30.5 45.5c-24 24 -57 36 -99 36c-82.667 0 -131.334 -46.333 -146.001 -139h286z
M153.002 736.001h90v-116h-90v116zM410.002 736.001v-116h-90v116h90z" />
    <glyph glyph-name="onesuperior" unicode="&#xb9;" horiz-adv-x="1056" 
d="M86 716h113l325 -563v563h100v-716h-112l-326 567v-567h-100v716zM692 561c0 52 13.167 93.167 39.5 123.5s62.833 45.5 109.5 45.5c44 0 78.833 -15.167 104.5 -45.5s38.5 -70.166 38.5 -119.499c0 -50 -13.5 -90.167 -40.5 -120.5s-62.5 -45.5 -106.5 -45.5
c-44.667 0 -80 14.667 -106 44s-39 68.666 -39 117.999zM760 567c0 -34 6.66699 -60 20 -78s32.333 -27 57 -27c54 0 81 35 81 105c0 68.667 -26.333 103 -79 103c-26 0 -45.667 -8.83301 -59 -26.5s-20 -43.167 -20 -76.5zM673 291v66h332v-66h-332z" />
    <glyph glyph-name="guillemotright" unicode="&#xbb;" horiz-adv-x="517" 
d="M66 64v118l90 88l-90 91v110l160 -156v-91zM259 64v118l91 88l-91 91v110l159 -156v-91z" />
    <glyph glyph-name="onequarter" unicode="&#xbc;" 
d="M35 305v78h475v-78h-475zM224 248h100v-103h-100v103zM224 543h100v-103h-100v103z" />
    <glyph glyph-name="onehalf" unicode="&#xbd;" horiz-adv-x="596" 
d="M68 495l53 51l151 -150l153 150l53 -51l-152 -151l152 -153l-53 -51l-153 151l-151 -151l-53 51l151 153z" />
    <glyph glyph-name="threequarters" unicode="&#xbe;" horiz-adv-x="955" 
d="M110 112h107v-112h-107v112zM438 112h107v-112h-107v112zM764 112h106v-112h-106v112z" />
    <glyph glyph-name="questiondown" unicode="&#xbf;" horiz-adv-x="326" 
d="M188 716h90v-103h-90v103zM33 716h90v-103h-90v103zM110 524h91v-524h-91v524z" />
    <glyph glyph-name="Agrave" unicode="&#xc0;" horiz-adv-x="684" 
d="M285 716h105l256 -716h-109l-71 213h-275l-75 -213h-107zM333 607l-109 -313h214z" />
    <glyph glyph-name="Agrave" unicode="&#x410;" horiz-adv-x="684" 
d="M285 716h105l256 -716h-109l-71 213h-275l-75 -213h-107zM333 607l-109 -313h214z" />
    <glyph glyph-name="Aacute" unicode="&#xc1;" horiz-adv-x="675" 
d="M524 716l0.00195312 -89.998h-338v-208h169c56 0 103.667 -8.83301 143 -26.5s69.5 -42.834 90.5 -75.501s31.5 -69.334 31.5 -110.001c0 -71.333 -26.333 -127 -79 -167c-18.667 -14 -41.334 -24 -68.001 -30s-65.334 -9 -116.001 -9h-271v716h438zM186.002 328.002
v-238h162c50.667 0 91.167 8.16699 121.5 24.5s45.5 47.5 45.5 93.5c0 80 -52.667 120 -158 120h-171z" />
    <glyph glyph-name="Aacute" unicode="&#x411;" horiz-adv-x="675" 
d="M524 716l0.00195312 -89.998h-338v-208h169c56 0 103.667 -8.83301 143 -26.5s69.5 -42.834 90.5 -75.501s31.5 -69.334 31.5 -110.001c0 -71.333 -26.333 -127 -79 -167c-18.667 -14 -41.334 -24 -68.001 -30s-65.334 -9 -116.001 -9h-271v716h438zM186.002 328.002
v-238h162c50.667 0 91.167 8.16699 121.5 24.5s45.5 47.5 45.5 93.5c0 80 -52.667 120 -158 120h-171z" />
    <glyph glyph-name="Acircumflex" unicode="&#xc2;" horiz-adv-x="675" 
d="M86 716l264.004 0.000976562c43.333 0 77.166 -2.66699 101.499 -8s46.166 -15.666 65.499 -30.999c48 -36 72 -84.333 72 -145c0 -68.667 -31.333 -117.334 -94 -146.001c38 -10.667 68.333 -32.334 91 -65.001s34 -71 34 -115c0 -71.333 -26.333 -127 -79 -167
c-18.667 -14 -41.334 -24 -68.001 -30s-65.334 -9 -116.001 -9h-271v716zM186.004 626.001v-207.999h169c44 0 76.5 8.16699 97.5 24.5s31.5 41.166 31.5 74.499c0 38.667 -10.5 66.5 -31.5 83.5s-56.5 25.5 -106.5 25.5h-160zM186.004 328.002v-238h162
c50.667 0 91.167 8.16699 121.5 24.5s45.5 47.5 45.5 93.5c0 80 -52.667 120 -158 120h-171z" />
    <glyph glyph-name="Acircumflex" unicode="&#x412;" horiz-adv-x="675" 
d="M86 716l264.004 0.000976562c43.333 0 77.166 -2.66699 101.499 -8s46.166 -15.666 65.499 -30.999c48 -36 72 -84.333 72 -145c0 -68.667 -31.333 -117.334 -94 -146.001c38 -10.667 68.333 -32.334 91 -65.001s34 -71 34 -115c0 -71.333 -26.333 -127 -79 -167
c-18.667 -14 -41.334 -24 -68.001 -30s-65.334 -9 -116.001 -9h-271v716zM186.004 626.001v-207.999h169c44 0 76.5 8.16699 97.5 24.5s31.5 41.166 31.5 74.499c0 38.667 -10.5 66.5 -31.5 83.5s-56.5 25.5 -106.5 25.5h-160zM186.004 328.002v-238h162
c50.667 0 91.167 8.16699 121.5 24.5s45.5 47.5 45.5 93.5c0 80 -52.667 120 -158 120h-171z" />
    <glyph glyph-name="Atilde" unicode="&#xc3;" horiz-adv-x="552" 
d="M86 716h416v-90h-316v-626h-100v716z" />
    <glyph glyph-name="Atilde" unicode="&#x413;" horiz-adv-x="552" 
d="M86 716h416v-90h-316v-626h-100v716z" />
    <glyph glyph-name="Adieresis" unicode="&#xc4;" horiz-adv-x="708" 
d="M86 90v442.001c0 58.667 23.333 107 70 145c10 7.33301 20.667 13.666 32 18.999s23 9.33301 35 12s25.833 4.66699 41.5 6s36.167 2 61.5 2h270v-626h65v-90h-632v90h57zM186 90.001h311v536h-168c-48.667 0 -84.667 -8 -108 -24s-35 -42.333 -35 -79v-433z" />
    <glyph glyph-name="Adieresis" unicode="&#x414;" horiz-adv-x="708" 
d="M86 90v442.001c0 58.667 23.333 107 70 145c10 7.33301 20.667 13.666 32 18.999s23 9.33301 35 12s25.833 4.66699 41.5 6s36.167 2 61.5 2h270v-626h65v-90h-632v90h57zM186 90.001h311v536h-168c-48.667 0 -84.667 -8 -108 -24s-35 -42.333 -35 -79v-433z" />
    <glyph glyph-name="Aring" unicode="&#xc5;" horiz-adv-x="696" 
d="M86 716h514v-90h-414v-210h383v-90h-383v-236h419v-90h-519v716z" />
    <glyph glyph-name="Aring" unicode="&#x415;" horiz-adv-x="696" 
d="M86 716h514v-90h-414v-210h383v-90h-383v-236h419v-90h-519v716z" />
    <glyph glyph-name="AE" unicode="&#xc6;" horiz-adv-x="1133" 
d="M500 0v248l-112 111l-237 -359h-118l287 423l-289 293h135l334 -350v350h100v-350l337 350h132l-289 -293l287 -423h-118l-237 359l-112 -111v-248h-100z" />
    <glyph glyph-name="AE" unicode="&#x416;" horiz-adv-x="1133" 
d="M500 0v248l-112 111l-237 -359h-118l287 423l-289 293h135l334 -350v350h100v-350l337 350h132l-289 -293l287 -423h-118l-237 359l-112 -111v-248h-100z" />
    <glyph glyph-name="Ccedilla" unicode="&#xc7;" horiz-adv-x="651" 
d="M313 0c-79.333 0 -141.832 21.168 -187.499 63.501s-68.5 89.833 -68.5 142.5h103c0 -34 15.333 -61.833 46 -83.5s66.334 -32.5 107.001 -32.5c28.667 0 54.334 5.66699 77.001 17c24 10.667 43.167 25.5 57.5 44.5s21.5 40.167 21.5 63.5
c0 38.667 -11.833 67.167 -35.5 85.5s-55.834 27.5 -96.501 27.5h-67v90h67c27.333 0 51.333 8.5 72 25.5s31 41.5 31 73.5c0 72.667 -40.667 109 -122 109c-41.333 0 -72.833 -9.5 -94.5 -28.5s-32.5 -45.833 -32.5 -80.5h-105c0 26.667 7.33301 55.667 22 87
c7.33301 15.333 17.166 29.5 29.499 42.5s27.166 25.167 44.499 36.5c34 22 78.333 33 133 33c70 0 125.5 -17.167 166.5 -51.5s61.5 -78.5 61.5 -132.5c0 -68.667 -31.333 -117.334 -94 -146.001c82 -25.333 123 -82.333 123 -171c0 -56.667 -24 -106.667 -72 -150
s-110.333 -65 -187 -65z" />
    <glyph glyph-name="Ccedilla" unicode="&#x417;" horiz-adv-x="651" 
d="M313 0c-79.333 0 -141.832 21.168 -187.499 63.501s-68.5 89.833 -68.5 142.5h103c0 -34 15.333 -61.833 46 -83.5s66.334 -32.5 107.001 -32.5c28.667 0 54.334 5.66699 77.001 17c24 10.667 43.167 25.5 57.5 44.5s21.5 40.167 21.5 63.5
c0 38.667 -11.833 67.167 -35.5 85.5s-55.834 27.5 -96.501 27.5h-67v90h67c27.333 0 51.333 8.5 72 25.5s31 41.5 31 73.5c0 72.667 -40.667 109 -122 109c-41.333 0 -72.833 -9.5 -94.5 -28.5s-32.5 -45.833 -32.5 -80.5h-105c0 26.667 7.33301 55.667 22 87
c7.33301 15.333 17.166 29.5 29.499 42.5s27.166 25.167 44.499 36.5c34 22 78.333 33 133 33c70 0 125.5 -17.167 166.5 -51.5s61.5 -78.5 61.5 -132.5c0 -68.667 -31.333 -117.334 -94 -146.001c82 -25.333 123 -82.333 123 -171c0 -56.667 -24 -106.667 -72 -150
s-110.333 -65 -187 -65z" />
    <glyph glyph-name="Egrave" unicode="&#xc8;" horiz-adv-x="718" 
d="M633 716v-716h-99v567l-326 -567h-112v716h101v-563l326 563h110z" />
    <glyph glyph-name="Egrave" unicode="&#x418;" horiz-adv-x="718" 
d="M633 716v-716h-99v567l-326 -567h-112v716h101v-563l326 563h110z" />
    <glyph glyph-name="Eacute" unicode="&#xc9;" horiz-adv-x="730" 
d="M633 716v-716h-99v567l-326 -567h-112v716h101v-563l326 563h110zM355 751c-32.667 0 -62.333 10 -89 30s-40 45.333 -40 76h89l-2 -3c0 -9.33301 4.66699 -16.333 14 -21c8 -6 18 -9 30 -9c10.667 0 19.834 3 27.501 9s11.5 13 11.5 21l88 3
c0 -30.667 -12.833 -56 -38.5 -76s-55.834 -30 -90.501 -30z" />
    <glyph glyph-name="Eacute" unicode="&#x419;" horiz-adv-x="730" 
d="M633 716v-716h-99v567l-326 -567h-112v716h101v-563l326 563h110zM355 751c-32.667 0 -62.333 10 -89 30s-40 45.333 -40 76h89l-2 -3c0 -9.33301 4.66699 -16.333 14 -21c8 -6 18 -9 30 -9c10.667 0 19.834 3 27.501 9s11.5 13 11.5 21l88 3
c0 -30.667 -12.833 -56 -38.5 -76s-55.834 -30 -90.501 -30z" />
    <glyph glyph-name="Ecircumflex" unicode="&#xca;" horiz-adv-x="730" 
d="M86 716h100v-350l337 350h132l-289 -293l287 -423h-118l-237 359l-112 -111v-248h-100v716z" />
    <glyph glyph-name="Ecircumflex" unicode="&#x41a;" horiz-adv-x="730" 
d="M86 716h100v-350l337 350h132l-289 -293l287 -423h-118l-237 359l-112 -111v-248h-100v716z" />
    <glyph glyph-name="Edieresis" unicode="&#xcb;" horiz-adv-x="730" 
d="M524 626l-195 0.000976562c-48.667 0 -84.667 -8 -108 -24s-35 -42.333 -35 -79v-523h-100v532c0 58.667 23.333 107 70 145c10 7.33301 20.667 13.666 32 18.999s23 9.33301 35 12s25.833 4.66699 41.5 6s36.167 2 61.5 2h298v-716h-100v626z" />
    <glyph glyph-name="Edieresis" unicode="&#x41b;" horiz-adv-x="730" 
d="M524 626l-195 0.000976562c-48.667 0 -84.667 -8 -108 -24s-35 -42.333 -35 -79v-523h-100v532c0 58.667 23.333 107 70 145c10 7.33301 20.667 13.666 32 18.999s23 9.33301 35 12s25.833 4.66699 41.5 6s36.167 2 61.5 2h298v-716h-100v626z" />
    <glyph glyph-name="Igrave" unicode="&#xcc;" horiz-adv-x="821" 
d="M86 716h142l182 -598l181 598h141v-716h-101v574l-177 -574h-93l-175 576v-576h-100v716z" />
    <glyph glyph-name="Igrave" unicode="&#x41c;" horiz-adv-x="821" 
d="M86 716h142l182 -598l181 598h141v-716h-101v574l-177 -574h-93l-175 576v-576h-100v716z" />
    <glyph glyph-name="Iacute" unicode="&#xcd;" horiz-adv-x="718" 
d="M86 716h100v-295h338v295h100v-716h-100v331h-338v-331h-100v716z" />
    <glyph glyph-name="Iacute" unicode="&#x41d;" horiz-adv-x="718" 
d="M86 716h100v-295h338v295h100v-716h-100v331h-338v-331h-100v716z" />
    <glyph glyph-name="Icircumflex" unicode="&#xce;" horiz-adv-x="799" 
d="M35 351c0 76.667 14.167 143.666 42.5 200.999s69.166 101.333 122.499 132s115 46 185 46c52.667 0 100.167 -8.5 142.5 -25.5s78.5 -41.5 108.5 -73.5s53 -70 69 -114s24 -95 24 -153c0 -70 -13.5 -133.833 -40.5 -191.5s-67 -103 -120 -136
s-116.167 -49.5 -189.5 -49.5c-71.333 0 -132.666 14.667 -183.999 44s-90.833 71.833 -118.5 127.5s-41.5 119.834 -41.5 192.501zM140 352.999c0 -84 21.6689 -150.999 65.002 -200.999s102.666 -75 177.999 -75c76 0 135.5 25.5 178.5 76.5s64.5 121.167 64.5 210.5
c0 28 -2.33301 54.167 -7 78.5s-12 47.166 -22 68.499c-20 42 -48.5 74 -85.5 96s-79.833 33 -128.5 33c-76.667 0 -136.334 -25.667 -179.001 -77s-64 -121.333 -64 -210z" />
    <glyph glyph-name="Icircumflex" unicode="&#x41e;" horiz-adv-x="799" 
d="M35 351c0 76.667 14.167 143.666 42.5 200.999s69.166 101.333 122.499 132s115 46 185 46c52.667 0 100.167 -8.5 142.5 -25.5s78.5 -41.5 108.5 -73.5s53 -70 69 -114s24 -95 24 -153c0 -70 -13.5 -133.833 -40.5 -191.5s-67 -103 -120 -136
s-116.167 -49.5 -189.5 -49.5c-71.333 0 -132.666 14.667 -183.999 44s-90.833 71.833 -118.5 127.5s-41.5 119.834 -41.5 192.501zM140 352.999c0 -84 21.6689 -150.999 65.002 -200.999s102.666 -75 177.999 -75c76 0 135.5 25.5 178.5 76.5s64.5 121.167 64.5 210.5
c0 28 -2.33301 54.167 -7 78.5s-12 47.166 -22 68.499c-20 42 -48.5 74 -85.5 96s-79.833 33 -128.5 33c-76.667 0 -136.334 -25.667 -179.001 -77s-64 -121.333 -64 -210z" />
    <glyph glyph-name="Idieresis" unicode="&#xcf;" horiz-adv-x="718" 
d="M86 716h538v-716h-100v626h-338v-626h-100v716z" />
    <glyph glyph-name="Idieresis" unicode="&#x41f;" horiz-adv-x="718" 
d="M86 716h538v-716h-100v626h-338v-626h-100v716z" />
    <glyph glyph-name="Eth" unicode="&#xd0;" horiz-adv-x="696" 
d="M86 716h274.999c46.667 0 84.334 -2.66699 113.001 -8c26 -6 48.333 -16.333 67 -31c52.667 -38 79 -93 79 -165c0 -46.667 -10.833 -87.5 -32.5 -122.5s-52.5 -59.833 -92.5 -74.5c-26 -10 -66 -15 -120 -15h-189v-300h-100v716zM185.999 390h155.999
c56 0 98.833 7.5 128.5 22.5s44.5 46.833 44.5 95.5c0 44.667 -13.667 75.5 -41 92.5s-65.666 25.5 -114.999 25.5h-173v-236z" />
    <glyph glyph-name="Eth" unicode="&#x420;" horiz-adv-x="696" 
d="M86 716h274.999c46.667 0 84.334 -2.66699 113.001 -8c26 -6 48.333 -16.333 67 -31c52.667 -38 79 -93 79 -165c0 -46.667 -10.833 -87.5 -32.5 -122.5s-52.5 -59.833 -92.5 -74.5c-26 -10 -66 -15 -120 -15h-189v-300h-100v716zM185.999 390h155.999
c56 0 98.833 7.5 128.5 22.5s44.5 46.833 44.5 95.5c0 44.667 -13.667 75.5 -41 92.5s-65.666 25.5 -114.999 25.5h-173v-236z" />
    <glyph glyph-name="Ntilde" unicode="&#xd1;" horiz-adv-x="730" 
d="M664 493l-97.001 -0.00195312c-26 98 -92.333 147 -199 147c-71.333 0 -127.166 -25.667 -167.499 -77s-60.5 -120.666 -60.5 -207.999c0 -86.667 19.333 -154.667 58 -204s93 -74 163 -74c54.667 0 100.167 16.167 136.5 48.5s59.5 78.833 69.5 139.5h97
c-8.66699 -81.333 -40 -148 -94 -200s-122.667 -78 -206 -78c-68 0 -126.5 14.833 -175.5 44.5s-86.833 72.167 -113.5 127.5s-40 119.333 -40 192c0 108.667 28.667 199 86 271s139 108 245 108c57.333 0 107.5 -9.66699 150.5 -29s77.333 -46.666 103 -81.999
s40.5 -77.333 44.5 -126z" />
    <glyph glyph-name="Ntilde" unicode="&#x421;" horiz-adv-x="730" 
d="M664 493l-97.001 -0.00195312c-26 98 -92.333 147 -199 147c-71.333 0 -127.166 -25.667 -167.499 -77s-60.5 -120.666 -60.5 -207.999c0 -86.667 19.333 -154.667 58 -204s93 -74 163 -74c54.667 0 100.167 16.167 136.5 48.5s59.5 78.833 69.5 139.5h97
c-8.66699 -81.333 -40 -148 -94 -200s-122.667 -78 -206 -78c-68 0 -126.5 14.833 -175.5 44.5s-86.833 72.167 -113.5 127.5s-40 119.333 -40 192c0 108.667 28.667 199 86 271s139 108 245 108c57.333 0 107.5 -9.66699 150.5 -29s77.333 -46.666 103 -81.999
s40.5 -77.333 44.5 -126z" />
    <glyph glyph-name="Ograve" unicode="&#xd2;" horiz-adv-x="651" 
d="M13 716h574v-90h-237v-626h-102v626h-235v90z" />
    <glyph glyph-name="Ograve" unicode="&#x422;" horiz-adv-x="651" 
d="M13 716h574v-90h-237v-626h-102v626h-235v90z" />
    <glyph glyph-name="Oacute" unicode="&#xd3;" horiz-adv-x="662" 
d="M642 716l-388 -716h-116l140 241l-250 475h121l186 -377l189 377h118z" />
    <glyph glyph-name="Oacute" unicode="&#x423;" horiz-adv-x="662" 
d="M642 716l-388 -716h-116l140 241l-250 475h121l186 -377l189 377h118z" />
    <glyph glyph-name="Ocircumflex" unicode="&#xd4;" horiz-adv-x="898" 
d="M399 793l101 0.00195312v-61c56 0 105.5 -8.83301 148.5 -26.5s81 -42.834 114 -75.501s58.333 -72.834 76 -120.501s26.5 -100.5 26.5 -158.5c0 -111.333 -34 -199.833 -102 -265.5s-155.667 -98.5 -263 -98.5v-75h-101v75c-106.667 0 -194 33 -262 99
s-102 154.333 -102 265c0 78 15.167 145.667 45.5 203s73.5 101.333 129.5 132s119 46 189 46v61zM500 640.002v-563c77.333 0 140.333 25 189 75s73 117 73 201c0 88.667 -24 158.667 -72 210s-111.333 77 -190 77zM399 640.002c-78 0 -140.667 -25.667 -188 -77
s-71 -121.333 -71 -210c0 -84 24 -151 72 -201s110.333 -75 187 -75v563z" />
    <glyph glyph-name="Ocircumflex" unicode="&#x424;" horiz-adv-x="898" 
d="M399 793l101 0.00195312v-61c56 0 105.5 -8.83301 148.5 -26.5s81 -42.834 114 -75.501s58.333 -72.834 76 -120.501s26.5 -100.5 26.5 -158.5c0 -111.333 -34 -199.833 -102 -265.5s-155.667 -98.5 -263 -98.5v-75h-101v75c-106.667 0 -194 33 -262 99
s-102 154.333 -102 265c0 78 15.167 145.667 45.5 203s73.5 101.333 129.5 132s119 46 189 46v61zM500 640.002v-563c77.333 0 140.333 25 189 75s73 117 73 201c0 88.667 -24 158.667 -72 210s-111.333 77 -190 77zM399 640.002c-78 0 -140.667 -25.667 -188 -77
s-71 -121.333 -71 -210c0 -84 24 -151 72 -201s110.333 -75 187 -75v563z" />
    <glyph glyph-name="Otilde" unicode="&#xd5;" horiz-adv-x="684" 
d="M7 0l262 364l-241 352h121l184 -273l191 273h118l-250 -348l256 -368h-124l-195 291l-206 -291h-116z" />
    <glyph glyph-name="Otilde" unicode="&#x425;" horiz-adv-x="684" 
d="M7 0l262 364l-241 352h121l184 -273l191 273h118l-250 -348l256 -368h-124l-195 291l-206 -291h-116z" />
    <glyph glyph-name="Odieresis" unicode="&#xd6;" horiz-adv-x="775" 
d="M86 0v716h100v-626h338v626h100v-626h66v-90h-604z" />
    <glyph glyph-name="Odieresis" unicode="&#x426;" horiz-adv-x="775" 
d="M86 0v716h100v-626h338v626h100v-626h66v-90h-604z" />
    <glyph glyph-name="multiply" unicode="&#xd7;" horiz-adv-x="730" 
d="M86 500v216h100v-199c0 -64 32.333 -96 97 -96h241v295h100v-716h-100v331h-244c-29.333 0 -58.5 4.83301 -87.5 14.5s-54 27 -75 52s-31.5 59.167 -31.5 102.5z" />
    <glyph glyph-name="multiply" unicode="&#x427;" horiz-adv-x="730" 
d="M86 500v216h100v-199c0 -64 32.333 -96 97 -96h241v295h100v-716h-100v331h-244c-29.333 0 -58.5 4.83301 -87.5 14.5s-54 27 -75 52s-31.5 59.167 -31.5 102.5z" />
    <glyph glyph-name="Oslash" unicode="&#xd8;" horiz-adv-x="1010" 
d="M86 0v716h100v-626h267v626h101v-626h267v626h99v-716h-834z" />
    <glyph glyph-name="Oslash" unicode="&#x428;" horiz-adv-x="1010" 
d="M86 0v716h100v-626h267v626h101v-626h267v626h99v-716h-834z" />
    <glyph glyph-name="Ugrave" unicode="&#xd9;" horiz-adv-x="1067" 
d="M86 0v716h100v-626h267v626h101v-626h267v626h99v-626h66v-90h-900z" />
    <glyph glyph-name="Ugrave" unicode="&#x429;" horiz-adv-x="1067" 
d="M86 0v716h100v-626h267v626h101v-626h267v626h99v-626h66v-90h-900z" />
    <glyph glyph-name="Uacute" unicode="&#xda;" horiz-adv-x="854" 
d="M248 626l-235 0.00195312v90h337v-298h167c57.333 0 105.333 -8.83301 144 -26.5s68.5 -42.834 89.5 -75.501s31.5 -69.334 31.5 -110.001c0 -72 -25.667 -127.667 -77 -167c-20 -14 -43.333 -24.333 -70 -31c-26.667 -5.33301 -64.667 -8 -114 -8h-273v626zM350 328.002
v-238h160c51.333 0 92.333 8.16699 123 24.5s46 47.5 46 93.5c0 80 -52.667 120 -158 120h-171z" />
    <glyph glyph-name="Uacute" unicode="&#x42a;" horiz-adv-x="854" 
d="M248 626l-235 0.00195312v90h337v-298h167c57.333 0 105.333 -8.83301 144 -26.5s68.5 -42.834 89.5 -75.501s31.5 -69.334 31.5 -110.001c0 -72 -25.667 -127.667 -77 -167c-20 -14 -43.333 -24.333 -70 -31c-26.667 -5.33301 -64.667 -8 -114 -8h-273v626zM350 328.002
v-238h160c51.333 0 92.333 8.16699 123 24.5s46 47.5 46 93.5c0 80 -52.667 120 -158 120h-171z" />
    <glyph glyph-name="Ucircumflex" unicode="&#xdb;" horiz-adv-x="911" 
d="M186 716l0.00195312 -297.998h169c56 0 103.667 -8.83301 143 -26.5s69.5 -42.834 90.5 -75.501s31.5 -69.334 31.5 -110.001c0 -71.333 -26.333 -127 -79 -167c-18.667 -14 -41.334 -24 -68.001 -30s-65.334 -9 -116.001 -9h-271v716h100zM186.002 328.002v-238h162
c50.667 0 91.167 8.16699 121.5 24.5s45.5 47.5 45.5 93.5c0 80 -52.667 120 -158 120h-171zM714.002 0.00195312v716h99v-716h-99z" />
    <glyph glyph-name="Ucircumflex" unicode="&#x42b;" horiz-adv-x="911" 
d="M186 716l0.00195312 -297.998h169c56 0 103.667 -8.83301 143 -26.5s69.5 -42.834 90.5 -75.501s31.5 -69.334 31.5 -110.001c0 -71.333 -26.333 -127 -79 -167c-18.667 -14 -41.334 -24 -68.001 -30s-65.334 -9 -116.001 -9h-271v716h100zM186.002 328.002v-238h162
c50.667 0 91.167 8.16699 121.5 24.5s45.5 47.5 45.5 93.5c0 80 -52.667 120 -158 120h-171zM714.002 0.00195312v716h99v-716h-99z" />
    <glyph glyph-name="Udieresis" unicode="&#xdc;" horiz-adv-x="708" 
d="M186 716l0.00195312 -297.998h169c56 0 103.667 -8.83301 143 -26.5s69.5 -42.834 90.5 -75.501s31.5 -69.334 31.5 -110.001c0 -71.333 -26.333 -127 -79 -167c-18.667 -14 -41.334 -24 -68.001 -30s-65.334 -9 -116.001 -9h-271v716h100zM186.002 328.002v-238h162
c50.667 0 91.167 8.16699 121.5 24.5s45.5 47.5 45.5 93.5c0 80 -52.667 120 -158 120h-171z" />
    <glyph glyph-name="Udieresis" unicode="&#x42c;" horiz-adv-x="708" 
d="M186 716l0.00195312 -297.998h169c56 0 103.667 -8.83301 143 -26.5s69.5 -42.834 90.5 -75.501s31.5 -69.334 31.5 -110.001c0 -71.333 -26.333 -127 -79 -167c-18.667 -14 -41.334 -24 -68.001 -30s-65.334 -9 -116.001 -9h-271v716h100zM186.002 328.002v-238h162
c50.667 0 91.167 8.16699 121.5 24.5s45.5 47.5 45.5 93.5c0 80 -52.667 120 -158 120h-171z" />
    <glyph glyph-name="Yacute" unicode="&#xdd;" horiz-adv-x="753" 
d="M565 331l-270.998 0.00195312v90h265c0 67.333 -20.667 120.666 -62 159.999c-20.667 19.333 -44.334 34 -71.001 44s-56.334 15 -89.001 15c-104 0 -169.667 -49 -197 -147h-100c8 72.667 38.833 130.334 92.5 173.001s122.5 64 206.5 64
c71.333 0 131.833 -16.833 181.5 -50.5s87.334 -79.334 113.001 -137.001s38.5 -121.5 38.5 -191.5c0 -74 -13.667 -138.5 -41 -193.5s-65.333 -97.167 -114 -126.5s-107 -44 -175 -44c-54 0 -102.5 11.667 -145.5 35s-77.833 55.666 -104.5 96.999s-44 90 -52 146h100
c8 -58.667 30.5 -104.667 67.5 -138s83.167 -50 138.5 -50c65.333 0 118.166 23.167 158.499 69.5s60.5 107.833 60.5 184.5z" />
    <glyph glyph-name="Yacute" unicode="&#x42d;" horiz-adv-x="753" 
d="M565 331l-270.998 0.00195312v90h265c0 67.333 -20.667 120.666 -62 159.999c-20.667 19.333 -44.334 34 -71.001 44s-56.334 15 -89.001 15c-104 0 -169.667 -49 -197 -147h-100c8 72.667 38.833 130.334 92.5 173.001s122.5 64 206.5 64
c71.333 0 131.833 -16.833 181.5 -50.5s87.334 -79.334 113.001 -137.001s38.5 -121.5 38.5 -191.5c0 -74 -13.667 -138.5 -41 -193.5s-65.333 -97.167 -114 -126.5s-107 -44 -175 -44c-54 0 -102.5 11.667 -145.5 35s-77.833 55.666 -104.5 96.999s-44 90 -52 146h100
c8 -58.667 30.5 -104.667 67.5 -138s83.167 -50 138.5 -50c65.333 0 118.166 23.167 158.499 69.5s60.5 107.833 60.5 184.5z" />
    <glyph glyph-name="Thorn" unicode="&#xde;" horiz-adv-x="1076" 
d="M302 331l-116 0.000976562v-331h-100v716h100v-295h119c8 63.333 26.833 118.166 56.5 164.499s69.667 82 120 107s106.833 37.5 169.5 37.5c105.333 0 189 -32.833 251 -98.5s93 -154.834 93 -267.501c0 -70 -13.5 -133.833 -40.5 -191.5s-67 -103 -120 -136
s-115.833 -49.5 -188.5 -49.5c-69.333 0 -129.333 14 -180 42s-90 68 -118 120c-14 25.333 -25.167 53.833 -33.5 85.5s-12.5 63.834 -12.5 96.501zM407 353.001c0 -84 21.6689 -151.001 65.002 -201.001s102.666 -75 177.999 -75c76 0 135.333 25 178 75s64 120.667 64 212
c0 55.333 -9.5 103.833 -28.5 145.5s-47.333 73.834 -85 96.501s-80.5 34 -128.5 34c-76.667 0 -136.334 -25.667 -179.001 -77s-64 -121.333 -64 -210z" />
    <glyph glyph-name="Thorn" unicode="&#x42e;" horiz-adv-x="1076" 
d="M302 331l-116 0.000976562v-331h-100v716h100v-295h119c8 63.333 26.833 118.166 56.5 164.499s69.667 82 120 107s106.833 37.5 169.5 37.5c105.333 0 189 -32.833 251 -98.5s93 -154.834 93 -267.501c0 -70 -13.5 -133.833 -40.5 -191.5s-67 -103 -120 -136
s-115.833 -49.5 -188.5 -49.5c-69.333 0 -129.333 14 -180 42s-90 68 -118 120c-14 25.333 -25.167 53.833 -33.5 85.5s-12.5 63.834 -12.5 96.501zM407 353.001c0 -84 21.6689 -151.001 65.002 -201.001s102.666 -75 177.999 -75c76 0 135.333 25 178 75s64 120.667 64 212
c0 55.333 -9.5 103.833 -28.5 145.5s-47.333 73.834 -85 96.501s-80.5 34 -128.5 34c-76.667 0 -136.334 -25.667 -179.001 -77s-64 -121.333 -64 -210z" />
    <glyph glyph-name="germandbls" unicode="&#xdf;" horiz-adv-x="742" 
d="M635 716l-0.000976562 -716h-100v304h-189c-52.667 0 -90.667 -6.66699 -114 -20s-35 -44.333 -35 -93v-90c0 -23.333 -6.33301 -57 -19 -101h-117c22 30 33 67.333 33 112v79c0 34.667 2.33301 62.5 7 83.5s13.334 37.5 26.001 49.5s31 22.333 55 31
c-66 30 -99 85.333 -99 166c0 68 24 120.667 72 158c20 15.333 43 25.333 69 30c12.667 2 28.5 3.66699 47.5 5s41.5 2 67.5 2h296zM534.999 626h-193c-50.667 0 -89.667 -7.5 -117 -22.5s-41 -46.167 -41 -93.5c0 -32 7.33301 -56.5 22 -73.5s33.667 -28.5 57 -34.5
c12 -2.66699 24.5 -4.66699 37.5 -6s29.5 -2 49.5 -2h185v232z" />
    <glyph glyph-name="germandbls" unicode="&#x42f;" horiz-adv-x="742" 
d="M635 716l-0.000976562 -716h-100v304h-189c-52.667 0 -90.667 -6.66699 -114 -20s-35 -44.333 -35 -93v-90c0 -23.333 -6.33301 -57 -19 -101h-117c22 30 33 67.333 33 112v79c0 34.667 2.33301 62.5 7 83.5s13.334 37.5 26.001 49.5s31 22.333 55 31
c-66 30 -99 85.333 -99 166c0 68 24 120.667 72 158c20 15.333 43 25.333 69 30c12.667 2 28.5 3.66699 47.5 5s41.5 2 67.5 2h296zM534.999 626h-193c-50.667 0 -89.667 -7.5 -117 -22.5s-41 -46.167 -41 -93.5c0 -32 7.33301 -56.5 22 -73.5s33.667 -28.5 57 -34.5
c12 -2.66699 24.5 -4.66699 37.5 -6s29.5 -2 49.5 -2h185v232z" />
    <glyph glyph-name="agrave" unicode="&#xe0;" 
d="M64 361c0 21.333 2.50195 40.1689 7.50195 56.502s12.5 31.833 22.5 46.5c34.667 48.667 94.667 73 180 73c64 0 113.5 -12 148.5 -36s52.5 -67.667 52.5 -131v-247c0 -18.667 2.16699 -32.5 6.5 -41.5s12.5 -13.5 24.5 -13.5l9 2h17v-68
c-10 -3.33301 -19.833 -6 -29.5 -8s-18.167 -3 -25.5 -3c-50.667 0 -78.334 26.333 -83.001 79c-51.333 -55.333 -111.666 -83 -180.999 -83c-50.667 0 -91.834 14.5 -123.501 43.5s-47.5 66.167 -47.5 111.5c0 73.333 29.833 120.666 89.5 141.999s144.5 37 254.5 47v26
c0 35.333 -8.33301 60.333 -25 75s-45.667 22 -87 22c-37.333 0 -65.333 -7.33301 -84 -22s-29.334 -38.334 -32.001 -71.001h-94zM385.002 261.003c-100.667 -14 -164 -27.333 -190 -40c-36.667 -13.333 -55 -37.333 -55 -72c0 -26 8.66699 -45.667 26 -59
c16.667 -14.667 40 -22 70 -22c40 0 74.833 12 104.5 36s44.5 52.667 44.5 86v71z" />
    <glyph glyph-name="agrave" unicode="&#x430;" 
d="M64 361c0 21.333 2.50195 40.1689 7.50195 56.502s12.5 31.833 22.5 46.5c34.667 48.667 94.667 73 180 73c64 0 113.5 -12 148.5 -36s52.5 -67.667 52.5 -131v-247c0 -18.667 2.16699 -32.5 6.5 -41.5s12.5 -13.5 24.5 -13.5l9 2h17v-68
c-10 -3.33301 -19.833 -6 -29.5 -8s-18.167 -3 -25.5 -3c-50.667 0 -78.334 26.333 -83.001 79c-51.333 -55.333 -111.666 -83 -180.999 -83c-50.667 0 -91.834 14.5 -123.501 43.5s-47.5 66.167 -47.5 111.5c0 73.333 29.833 120.666 89.5 141.999s144.5 37 254.5 47v26
c0 35.333 -8.33301 60.333 -25 75s-45.667 22 -87 22c-37.333 0 -65.333 -7.33301 -84 -22s-29.334 -38.334 -32.001 -71.001h-94zM385.002 261.003c-100.667 -14 -164 -27.333 -190 -40c-36.667 -13.333 -55 -37.333 -55 -72c0 -26 8.66699 -45.667 26 -59
c16.667 -14.667 40 -22 70 -22c40 0 74.833 12 104.5 36s44.5 52.667 44.5 86v71z" />
    <glyph glyph-name="aacute" unicode="&#xe1;" 
d="M33 296c0 48.667 2.33691 91.999 7.00391 129.999s12 71 22 99c19.333 56 46.666 95.667 81.999 119s78.666 35 129.999 35c24.667 0 43.167 3.66699 55.5 11s18.5 16 18.5 26h88c0 -32 -14.333 -60 -43 -84s-68.334 -36 -119.001 -36c-82 0 -131 -41.667 -147 -125
c15.333 18 36.166 33.5 62.499 46.5s53.833 19.5 82.5 19.5c73.333 0 131.333 -24 174 -72s64 -116 64 -204c0 -86 -21.167 -153.167 -63.5 -201.5s-100.5 -72.5 -174.5 -72.5c-77.333 0 -136.5 24.333 -177.5 73s-61.5 127.334 -61.5 236.001zM272.004 453.999
c-29.333 0 -54.3301 -7.33398 -74.9971 -22.001s-36.834 -37.167 -48.501 -67.5s-17.5 -64.833 -17.5 -103.5c0 -60 12.667 -107.167 38 -141.5s59.666 -51.5 102.999 -51.5c45.333 0 80.333 17.333 105 52s37 83 37 145c0 40.667 -5.66699 74.667 -17 102
c-10.667 28.667 -26.834 50.334 -48.501 65.001s-47.167 22 -76.5 22z" />
    <glyph glyph-name="aacute" unicode="&#x431;" 
d="M33 296c0 48.667 2.33691 91.999 7.00391 129.999s12 71 22 99c19.333 56 46.666 95.667 81.999 119s78.666 35 129.999 35c24.667 0 43.167 3.66699 55.5 11s18.5 16 18.5 26h88c0 -32 -14.333 -60 -43 -84s-68.334 -36 -119.001 -36c-82 0 -131 -41.667 -147 -125
c15.333 18 36.166 33.5 62.499 46.5s53.833 19.5 82.5 19.5c73.333 0 131.333 -24 174 -72s64 -116 64 -204c0 -86 -21.167 -153.167 -63.5 -201.5s-100.5 -72.5 -174.5 -72.5c-77.333 0 -136.5 24.333 -177.5 73s-61.5 127.334 -61.5 236.001zM272.004 453.999
c-29.333 0 -54.3301 -7.33398 -74.9971 -22.001s-36.834 -37.167 -48.501 -67.5s-17.5 -64.833 -17.5 -103.5c0 -60 12.667 -107.167 38 -141.5s59.666 -51.5 102.999 -51.5c45.333 0 80.333 17.333 105 52s37 83 37 145c0 40.667 -5.66699 74.667 -17 102
c-10.667 28.667 -26.834 50.334 -48.501 65.001s-47.167 22 -76.5 22z" />
    <glyph glyph-name="acircumflex" unicode="&#xe2;" horiz-adv-x="552" 
d="M344 0l-279.999 -0.000976562v524h258c53.333 0 93.666 -12 120.999 -36c26 -25.333 39 -55.666 39 -90.999c0 -54 -28.333 -93 -85 -117c70 -18 105 -66 105 -144c0 -34.667 -16.5 -66 -49.5 -94s-69.167 -42 -108.5 -42zM322.001 235.999h-167.001v-155h171
c24.667 0 44.834 7 60.501 21s23.5 32 23.5 54c0 21.333 -8 40 -24 56s-37.333 24 -64 24zM296 314.999c64 0 96 25.666 96 76.999c0 18.667 -8.5 32.834 -25.5 42.501s-40.5 14.5 -70.5 14.5h-141v-134h141z" />
    <glyph glyph-name="acircumflex" unicode="&#x432;" horiz-adv-x="552" 
d="M344 0l-279.999 -0.000976562v524h258c53.333 0 93.666 -12 120.999 -36c26 -25.333 39 -55.666 39 -90.999c0 -54 -28.333 -93 -85 -117c70 -18 105 -66 105 -144c0 -34.667 -16.5 -66 -49.5 -94s-69.167 -42 -108.5 -42zM322.001 235.999h-167.001v-155h171
c24.667 0 44.834 7 60.501 21s23.5 32 23.5 54c0 21.333 -8 40 -24 56s-37.333 24 -64 24zM296 314.999c64 0 96 25.666 96 76.999c0 18.667 -8.5 32.834 -25.5 42.501s-40.5 14.5 -70.5 14.5h-141v-134h141z" />
    <glyph glyph-name="atilde" unicode="&#xe3;" horiz-adv-x="506" 
d="M447 171c0 -58.667 -17.999 -104 -53.999 -136s-88 -48 -156 -48c-62.667 0 -113.167 15.167 -151.5 45.5s-57.5 71.166 -57.5 122.499c0 32 8.16699 57.167 24.5 75.5s45.5 36.5 87.5 54.5l153 61c29.333 12 44 27.333 44 46c0 18 -9.16699 32.833 -27.5 44.5
s-41.833 17.5 -70.5 17.5c-71.333 0 -107 -28 -107 -84h-90c0 36 8.33301 66.5 25 91.5s40 43.833 70 56.5s63 19 99 19c37.333 0 70.666 -6.33301 99.999 -19s52.166 -30.667 68.499 -54s24.5 -49.666 24.5 -78.999c0 -28.667 -6.66699 -51.667 -20 -69
c-12 -17.333 -36 -34.333 -72 -51l-164 -70c-20 -8.66699 -33.333 -16.167 -40 -22.5s-10 -15.833 -10 -28.5c0 -22 10.5 -40.167 31.5 -54.5s48.167 -21.5 81.5 -21.5c40.667 0 70.334 8.5 89.001 25.5s28 42.833 28 77.5h94z" />
    <glyph glyph-name="atilde" unicode="&#x433;" horiz-adv-x="506" 
d="M447 171c0 -58.667 -17.999 -104 -53.999 -136s-88 -48 -156 -48c-62.667 0 -113.167 15.167 -151.5 45.5s-57.5 71.166 -57.5 122.499c0 32 8.16699 57.167 24.5 75.5s45.5 36.5 87.5 54.5l153 61c29.333 12 44 27.333 44 46c0 18 -9.16699 32.833 -27.5 44.5
s-41.833 17.5 -70.5 17.5c-71.333 0 -107 -28 -107 -84h-90c0 36 8.33301 66.5 25 91.5s40 43.833 70 56.5s63 19 99 19c37.333 0 70.666 -6.33301 99.999 -19s52.166 -30.667 68.499 -54s24.5 -49.666 24.5 -78.999c0 -28.667 -6.66699 -51.667 -20 -69
c-12 -17.333 -36 -34.333 -72 -51l-164 -70c-20 -8.66699 -33.333 -16.167 -40 -22.5s-10 -15.833 -10 -28.5c0 -22 10.5 -40.167 31.5 -54.5s48.167 -21.5 81.5 -21.5c40.667 0 70.334 8.5 89.001 25.5s28 42.833 28 77.5h94z" />
    <glyph glyph-name="adieresis" unicode="&#xe4;" horiz-adv-x="528" 
d="M392 453l0.00195312 70.998h88v-443c0 -64.667 -5.5 -117.5 -16.5 -158.5s-33.167 -74.167 -66.5 -99.5s-80.333 -38 -141 -38c-62 0 -109 12.5 -141 37.5s-52 65.833 -60 122.5h90c7.33301 -29.333 19.166 -49.5 35.499 -60.5s40.833 -16.5 73.5 -16.5
c48.667 0 82.834 14.333 102.501 43s29.5 79.334 29.5 152.001c-21.333 -27.333 -43.5 -46.833 -66.5 -58.5s-49.833 -17.5 -80.5 -17.5c-62.667 0 -112.334 23.833 -149.001 71.5s-55 112.834 -55 195.501c0 86 18.167 154.667 54.5 206s86.833 77 151.5 77
c63.333 0 113.666 -28 150.999 -84zM131.002 260.998c0 -57.333 11.834 -103.833 35.501 -139.5s55.167 -53.5 94.5 -53.5s70.666 17.667 93.999 53s35 82 35 140c0 58.667 -11.5 105.5 -34.5 140.5s-54.5 52.5 -94.5 52.5c-40.667 0 -72.5 -17.333 -95.5 -52
s-34.5 -81.667 -34.5 -141z" />
    <glyph glyph-name="adieresis" unicode="&#x434;" horiz-adv-x="528" 
d="M392 453l0.00195312 70.998h88v-443c0 -64.667 -5.5 -117.5 -16.5 -158.5s-33.167 -74.167 -66.5 -99.5s-80.333 -38 -141 -38c-62 0 -109 12.5 -141 37.5s-52 65.833 -60 122.5h90c7.33301 -29.333 19.166 -49.5 35.499 -60.5s40.833 -16.5 73.5 -16.5
c48.667 0 82.834 14.333 102.501 43s29.5 79.334 29.5 152.001c-21.333 -27.333 -43.5 -46.833 -66.5 -58.5s-49.833 -17.5 -80.5 -17.5c-62.667 0 -112.334 23.833 -149.001 71.5s-55 112.834 -55 195.501c0 86 18.167 154.667 54.5 206s86.833 77 151.5 77
c63.333 0 113.666 -28 150.999 -84zM131.002 260.998c0 -57.333 11.834 -103.833 35.501 -139.5s55.167 -53.5 94.5 -53.5s70.666 17.667 93.999 53s35 82 35 140c0 58.667 -11.5 105.5 -34.5 140.5s-54.5 52.5 -94.5 52.5c-40.667 0 -72.5 -17.333 -95.5 -52
s-34.5 -81.667 -34.5 -141z" />
    <glyph glyph-name="aring" unicode="&#xe5;" 
d="M510 234l-380.999 0.000976562c0 -54 13.167 -95.167 39.5 -123.5s62.833 -42.5 109.5 -42.5c71.333 0 114.666 35 129.999 105h94c-12 -58 -38.5 -103.5 -79.5 -136.5s-90.5 -49.5 -148.5 -49.5c-74 0 -132.333 24.5 -175 73.5s-64 115.833 -64 200.5
c0 84 22 150.667 66 200s103.667 74 179 74c77.333 0 135 -23.833 173 -71.5s57 -110.834 57 -189.501v-40zM418.001 315.001c0 21.333 -3.49902 40.5 -10.499 57.5s-17.167 32.167 -30.5 45.5c-24 24 -57 36 -99 36c-82.667 0 -131.334 -46.333 -146.001 -139h286z" />
    <glyph glyph-name="aring" unicode="&#x435;" 
d="M510 234l-380.999 0.000976562c0 -54 13.167 -95.167 39.5 -123.5s62.833 -42.5 109.5 -42.5c71.333 0 114.666 35 129.999 105h94c-12 -58 -38.5 -103.5 -79.5 -136.5s-90.5 -49.5 -148.5 -49.5c-74 0 -132.333 24.5 -175 73.5s-64 115.833 -64 200.5
c0 84 22 150.667 66 200s103.667 74 179 74c77.333 0 135 -23.833 173 -71.5s57 -110.834 57 -189.501v-40zM418.001 315.001c0 21.333 -3.49902 40.5 -10.499 57.5s-17.167 32.167 -30.5 45.5c-24 24 -57 36 -99 36c-82.667 0 -131.334 -46.333 -146.001 -139h286z" />
    <glyph glyph-name="ae" unicode="&#xe6;" horiz-adv-x="865" 
d="M377 0v201l-72 66l-154 -267h-111l205 329l-199 195h116l215 -211v211h90v-211l214 211h118l-201 -195l204 -329h-110l-155 267l-70 -66v-201h-90z" />
    <glyph glyph-name="ae" unicode="&#x436;" horiz-adv-x="865" 
d="M377 0v201l-72 66l-154 -267h-111l205 329l-199 195h116l215 -211v211h90v-211l214 211h118l-201 -195l204 -329h-110l-155 267l-70 -66v-201h-90z" />
    <glyph glyph-name="ccedilla" unicode="&#xe7;" horiz-adv-x="517" 
d="M245 -6c-41.333 0 -78.002 7.66797 -110.002 23.001s-56.333 35.666 -73 60.999s-25 51.333 -25 78h99c0 -21.333 10.167 -41 30.5 -59s46.5 -27 78.5 -27c34 0 62.333 8.66699 85 26s34 38.666 34 63.999c0 20.667 -7.83301 38.5 -23.5 53.5s-37.167 22.5 -64.5 22.5
h-46v79h20c29.333 0 52.333 6.83301 69 20.5s25 31.834 25 54.501c0 18 -8 32.667 -24 44c-17.333 10 -40.666 15 -69.999 15c-27.333 0 -51 -6 -71 -18s-30 -25 -30 -39h-88c0 36.667 18.5 68.5 55.5 95.5s83.5 40.5 139.5 40.5c36.667 0 68.334 -5.33301 95.001 -16
s47.834 -26 63.501 -46s23.5 -42.333 23.5 -67c0 -55.333 -28.333 -95 -85 -119c31.333 -4.66699 57.666 -18.667 78.999 -42s32 -51 32 -83c0 -43.333 -21.5 -81 -64.5 -113s-94.5 -48 -154.5 -48z" />
    <glyph glyph-name="ccedilla" unicode="&#x437;" horiz-adv-x="517" 
d="M245 -6c-41.333 0 -78.002 7.66797 -110.002 23.001s-56.333 35.666 -73 60.999s-25 51.333 -25 78h99c0 -21.333 10.167 -41 30.5 -59s46.5 -27 78.5 -27c34 0 62.333 8.66699 85 26s34 38.666 34 63.999c0 20.667 -7.83301 38.5 -23.5 53.5s-37.167 22.5 -64.5 22.5
h-46v79h20c29.333 0 52.333 6.83301 69 20.5s25 31.834 25 54.501c0 18 -8 32.667 -24 44c-17.333 10 -40.666 15 -69.999 15c-27.333 0 -51 -6 -71 -18s-30 -25 -30 -39h-88c0 36.667 18.5 68.5 55.5 95.5s83.5 40.5 139.5 40.5c36.667 0 68.334 -5.33301 95.001 -16
s47.834 -26 63.501 -46s23.5 -42.333 23.5 -67c0 -55.333 -28.333 -95 -85 -119c31.333 -4.66699 57.666 -18.667 78.999 -42s32 -51 32 -83c0 -43.333 -21.5 -81 -64.5 -113s-94.5 -48 -154.5 -48z" />
    <glyph glyph-name="egrave" unicode="&#xe8;" horiz-adv-x="552" 
d="M64 524l91 -0.000976562v-333c0 -45.333 7.66699 -77.166 23 -95.499s41.333 -27.5 78 -27.5c44.667 0 80 18.333 106 55c20 28 30 73 30 135v266h90v-522h-85v81c-32 -64 -86.333 -96 -163 -96c-64 0 -108.333 17.167 -133 51.5s-37 83.5 -37 147.5v338z" />
    <glyph glyph-name="egrave" unicode="&#x438;" horiz-adv-x="552" 
d="M64 524l91 -0.000976562v-333c0 -45.333 7.66699 -77.166 23 -95.499s41.333 -27.5 78 -27.5c44.667 0 80 18.333 106 55c20 28 30 73 30 135v266h90v-522h-85v81c-32 -64 -86.333 -96 -163 -96c-64 0 -108.333 17.167 -133 51.5s-37 83.5 -37 147.5v338z" />
    <glyph glyph-name="eacute" unicode="&#xe9;" 
d="M64 524l91 -0.000976562v-333c0 -45.333 7.66699 -77.166 23 -95.499s41.333 -27.5 78 -27.5c44.667 0 80 18.333 106 55c20 28 30 73 30 135v266h90v-522h-85v81c-32 -64 -86.333 -96 -163 -96c-64 0 -108.333 17.167 -133 51.5s-37 83.5 -37 147.5v338zM270 597.999
c-40.667 0 -72.5 11.668 -95.5 35.001s-34.5 50.333 -34.5 81h79c0 -10 4.16699 -20.5 12.5 -31.5s21.166 -16.5 38.499 -16.5s29.333 5.16699 36 15.5s10.667 21.166 12 32.499h78c0 -29.333 -10.667 -56 -32 -80s-52.666 -36 -93.999 -36z" />
    <glyph glyph-name="eacute" unicode="&#x439;" 
d="M64 524l91 -0.000976562v-333c0 -45.333 7.66699 -77.166 23 -95.499s41.333 -27.5 78 -27.5c44.667 0 80 18.333 106 55c20 28 30 73 30 135v266h90v-522h-85v81c-32 -64 -86.333 -96 -163 -96c-64 0 -108.333 17.167 -133 51.5s-37 83.5 -37 147.5v338zM270 597.999
c-40.667 0 -72.5 11.668 -95.5 35.001s-34.5 50.333 -34.5 81h79c0 -10 4.16699 -20.5 12.5 -31.5s21.166 -16.5 38.499 -16.5s29.333 5.16699 36 15.5s10.667 21.166 12 32.499h78c0 -29.333 -10.667 -56 -32 -80s-52.666 -36 -93.999 -36z" />
    <glyph glyph-name="ecircumflex" unicode="&#xea;" 
d="M64 524h91v-211l213 211h118l-199 -195l204 -329h-110l-155 267l-71 -66v-201h-91v524z" />
    <glyph glyph-name="ecircumflex" unicode="&#x43a;" 
d="M64 524h91v-211l213 211h118l-199 -195l204 -329h-110l-155 267l-71 -66v-201h-91v524z" />
    <glyph glyph-name="edieresis" unicode="&#xeb;" 
d="M491 524l0.000976562 -524h-92v274c0 47.333 -3.16699 81.666 -9.5 102.999s-20.5 39.5 -42.5 54.5s-48.667 22.5 -80 22.5c-38 0 -65 -10.167 -81 -30.5s-24 -55.5 -24 -105.5v-318h-90v333c0 29.333 1 50.666 3 63.999c0 6.66699 0.333008 11.334 1 14.001
s4 13.334 10 32.001c11.333 28 30.333 51 57 69c26.667 16.667 58.667 25 96 25c33.333 0 62.666 -6 87.999 -18c24.667 -13.333 48.667 -35 72 -65v70h92z" />
    <glyph glyph-name="edieresis" unicode="&#x43b;" 
d="M491 524l0.000976562 -524h-92v274c0 47.333 -3.16699 81.666 -9.5 102.999s-20.5 39.5 -42.5 54.5s-48.667 22.5 -80 22.5c-38 0 -65 -10.167 -81 -30.5s-24 -55.5 -24 -105.5v-318h-90v333c0 29.333 1 50.666 3 63.999c0 6.66699 0.333008 11.334 1 14.001
s4 13.334 10 32.001c11.333 28 30.333 51 57 69c26.667 16.667 58.667 25 96 25c33.333 0 62.666 -6 87.999 -18c24.667 -13.333 48.667 -35 72 -65v70h92z" />
    <glyph glyph-name="igrave" unicode="&#xec;" horiz-adv-x="718" 
d="M359 110l206 414h90v-524h-90v335l-158 -335h-92l-160 335v-335h-91v524h91z" />
    <glyph glyph-name="igrave" unicode="&#x43c;" horiz-adv-x="718" 
d="M359 110l206 414h90v-524h-90v335l-158 -335h-92l-160 335v-335h-91v524h91z" />
    <glyph glyph-name="iacute" unicode="&#xed;" horiz-adv-x="539" 
d="M155 234v-234h-91v524h91v-209h237v209h90v-524h-90v234h-237z" />
    <glyph glyph-name="iacute" unicode="&#x43d;" horiz-adv-x="539" 
d="M155 234v-234h-91v524h91v-209h237v209h90v-524h-90v234h-237z" />
    <glyph glyph-name="icircumflex" unicode="&#xee;" horiz-adv-x="585" 
d="M35 261c0 86.667 21.168 154.333 63.501 203s100.166 73 173.499 73s131.333 -24 174 -72s64 -116 64 -204c0 -86 -21.167 -153.167 -63.5 -201.5s-100.5 -72.5 -174.5 -72.5s-132 24.5 -174 73.5s-63 115.833 -63 200.5zM131.001 260.999
c0 -60 12.6699 -107.168 38.0029 -141.501s59.666 -51.5 102.999 -51.5c45.333 0 80.333 17.333 105 52s37 83 37 145c0 40.667 -5.66699 74.667 -17 102c-10.667 28.667 -26.834 50.334 -48.501 65.001s-47.167 22 -76.5 22s-54.333 -7.33301 -75 -22
s-36.834 -37.167 -48.501 -67.5s-17.5 -64.833 -17.5 -103.5z" />
    <glyph glyph-name="icircumflex" unicode="&#x43e;" horiz-adv-x="585" 
d="M35 261c0 86.667 21.168 154.333 63.501 203s100.166 73 173.499 73s131.333 -24 174 -72s64 -116 64 -204c0 -86 -21.167 -153.167 -63.5 -201.5s-100.5 -72.5 -174.5 -72.5s-132 24.5 -174 73.5s-63 115.833 -63 200.5zM131.001 260.999
c0 -60 12.6699 -107.168 38.0029 -141.501s59.666 -51.5 102.999 -51.5c45.333 0 80.333 17.333 105 52s37 83 37 145c0 40.667 -5.66699 74.667 -17 102c-10.667 28.667 -26.834 50.334 -48.501 65.001s-47.167 22 -76.5 22s-54.333 -7.33301 -75 -22
s-36.834 -37.167 -48.501 -67.5s-17.5 -64.833 -17.5 -103.5z" />
    <glyph glyph-name="idieresis" unicode="&#xef;" horiz-adv-x="539" 
d="M64 524l91.0029 -0.000976562v-70c26.667 30.667 51.667 52.167 75 64.5s52 18.5 86 18.5c37.333 0 69.666 -8.5 96.999 -25.5s45.666 -38.667 54.999 -65s14 -64.166 14 -113.499v-333h-90v318c0 50 -8 85 -24 105c-14.667 20.667 -41 31 -79 31
c-30.667 0 -56.834 -7.16699 -78.501 -21.5s-36.5 -33.833 -44.5 -58.5c-5.33301 -14.667 -8.33301 -26.667 -9 -36l-2 -64v-274h-91v524z" />
    <glyph glyph-name="idieresis" unicode="&#x43f;" horiz-adv-x="539" 
d="M64 524l91.0029 -0.000976562v-70c26.667 30.667 51.667 52.167 75 64.5s52 18.5 86 18.5c37.333 0 69.666 -8.5 96.999 -25.5s45.666 -38.667 54.999 -65s14 -64.166 14 -113.499v-333h-90v318c0 50 -8 85 -24 105c-14.667 20.667 -41 31 -79 31
c-30.667 0 -56.834 -7.16699 -78.501 -21.5s-36.5 -33.833 -44.5 -58.5c-5.33301 -14.667 -8.33301 -26.667 -9 -36l-2 -64v-274h-91v524z" />
    <glyph glyph-name="eth" unicode="&#xf0;" horiz-adv-x="572" 
d="M64 524l91 0.00195312v-62c21.333 25.333 44.333 44.666 69 57.999c24 11.333 51 17 81 17c63.333 0 113.333 -23.833 150 -71.5s55 -113.834 55 -198.501s-18.5 -152.5 -55.5 -203.5s-87.833 -76.5 -152.5 -76.5c-32.667 0 -60 5.5 -82 16.5s-43.667 28.167 -65 51.5
v-257h-91v726zM283 454.002c-40 0 -72.001 -17 -96.001 -51s-36 -81.333 -36 -142c0 -58 11.833 -104.667 35.5 -140s55.834 -53 96.501 -53c38.667 0 70.667 17 96 51c23.333 34.667 35 82 35 142c0 60.667 -11.833 108 -35.5 142s-55.5 51 -95.5 51z" />
    <glyph glyph-name="eth" unicode="&#x440;" horiz-adv-x="572" 
d="M64 524l91 0.00195312v-62c21.333 25.333 44.333 44.666 69 57.999c24 11.333 51 17 81 17c63.333 0 113.333 -23.833 150 -71.5s55 -113.834 55 -198.501s-18.5 -152.5 -55.5 -203.5s-87.833 -76.5 -152.5 -76.5c-32.667 0 -60 5.5 -82 16.5s-43.667 28.167 -65 51.5
v-257h-91v726zM283 454.002c-40 0 -72.001 -17 -96.001 -51s-36 -81.333 -36 -142c0 -58 11.833 -104.667 35.5 -140s55.834 -53 96.501 -53c38.667 0 70.667 17 96 51c23.333 34.667 35 82 35 142c0 60.667 -11.833 108 -35.5 142s-55.5 51 -95.5 51z" />
    <glyph glyph-name="ntilde" unicode="&#xf1;" 
d="M399 188l93.998 -0.00195312c-7.33301 -52.667 -20.666 -92.667 -39.999 -120c-44.667 -56.667 -103 -85 -175 -85c-76 0 -135.5 24 -178.5 72s-64.5 114.333 -64.5 199c0 89.333 21.167 158.833 63.5 208.5s101.5 74.5 177.5 74.5c61.333 0 110.833 -17.167 148.5 -51.5
s60.5 -82.166 68.5 -143.499h-94c-6 35.333 -20.167 62.833 -42.5 82.5s-49.166 29.5 -80.499 29.5c-44.667 0 -80 -16.5 -106 -49.5s-39 -78.833 -39 -137.5c0 -63.333 12.833 -112.666 38.5 -147.999s61.167 -53 106.5 -53c63.333 0 104.333 40.667 123 122z" />
    <glyph glyph-name="ntilde" unicode="&#x441;" 
d="M399 188l93.998 -0.00195312c-7.33301 -52.667 -20.666 -92.667 -39.999 -120c-44.667 -56.667 -103 -85 -175 -85c-76 0 -135.5 24 -178.5 72s-64.5 114.333 -64.5 199c0 89.333 21.167 158.833 63.5 208.5s101.5 74.5 177.5 74.5c61.333 0 110.833 -17.167 148.5 -51.5
s60.5 -82.166 68.5 -143.499h-94c-6 35.333 -20.167 62.833 -42.5 82.5s-49.166 29.5 -80.499 29.5c-44.667 0 -80 -16.5 -106 -49.5s-39 -78.833 -39 -137.5c0 -63.333 12.833 -112.666 38.5 -147.999s61.167 -53 106.5 -53c63.333 0 104.333 40.667 123 122z" />
    <glyph glyph-name="ograve" unicode="&#xf2;" horiz-adv-x="808" 
d="M64 524l90.998 -0.00195312v-66c12.667 14 25.334 26 38.001 36s24.667 18.333 36 25c22 12 48 18 78 18c32 0 57.667 -6.16699 77 -18.5s37.333 -32.5 54 -60.5c25.333 27.333 50 47.333 74 60s51.333 19 82 19c106 0 159 -60 159 -180v-357h-91v342
c0 39.333 -6.83301 67.833 -20.5 85.5s-36.167 26.5 -67.5 26.5c-23.333 0 -45.666 -7 -66.999 -21c-21.333 -15.333 -35 -32.666 -41 -51.999c-8.66699 -18.667 -13 -53 -13 -103v-278h-91v329c0 48 -5 81 -15 99c-11.333 17.333 -32 26 -62 26c-28 0 -53 -7.5 -75 -22.5
s-38 -36.167 -48 -63.5c-4.66699 -13.333 -7 -42.666 -7 -87.999v-280h-91v524z" />
    <glyph glyph-name="ograve" unicode="&#x442;" horiz-adv-x="808" 
d="M64 524l90.998 -0.00195312v-66c12.667 14 25.334 26 38.001 36s24.667 18.333 36 25c22 12 48 18 78 18c32 0 57.667 -6.16699 77 -18.5s37.333 -32.5 54 -60.5c25.333 27.333 50 47.333 74 60s51.333 19 82 19c106 0 159 -60 159 -180v-357h-91v342
c0 39.333 -6.83301 67.833 -20.5 85.5s-36.167 26.5 -67.5 26.5c-23.333 0 -45.666 -7 -66.999 -21c-21.333 -15.333 -35 -32.666 -41 -51.999c-8.66699 -18.667 -13 -53 -13 -103v-278h-91v329c0 48 -5 81 -15 99c-11.333 17.333 -32 26 -62 26c-28 0 -53 -7.5 -75 -22.5
s-38 -36.167 -48 -63.5c-4.66699 -13.333 -7 -42.666 -7 -87.999v-280h-91v524z" />
    <glyph glyph-name="oacute" unicode="&#xf3;" horiz-adv-x="528" 
d="M109 524l139 -415l138 415h98l-210 -583c-21.333 -52.667 -41.333 -91.834 -60 -117.501s-46.334 -38.5 -83.001 -38.5c-23.333 0 -48 3 -74 9v85c10.667 -3.33301 20.334 -6 29.001 -8s16.667 -3 24 -3c21.333 0 38 7.33301 50 22c11.333 16.667 25 50.334 41 101.001
l-194 533h102z" />
    <glyph glyph-name="oacute" unicode="&#x443;" horiz-adv-x="528" 
d="M109 524l139 -415l138 415h98l-210 -583c-21.333 -52.667 -41.333 -91.834 -60 -117.501s-46.334 -38.5 -83.001 -38.5c-23.333 0 -48 3 -74 9v85c10.667 -3.33301 20.334 -6 29.001 -8s16.667 -3 24 -3c21.333 0 38 7.33301 50 22c11.333 16.667 25 50.334 41 101.001
l-194 533h102z" />
    <glyph glyph-name="ocircumflex" unicode="&#xf4;" horiz-adv-x="887" 
d="M388 -202l0.000976562 257.001c-38 -45.333 -87 -68 -147 -68c-63.333 0 -113.833 25.5 -151.5 76.5s-56.5 118.833 -56.5 203.5c0 84 18.333 150 55 198s86.334 72 149.001 72c32.667 0 60.667 -6 84 -18s45.666 -31 66.999 -57v254h90v-254c22.667 26 45.667 45 69 57
s50.666 18 81.999 18c65.333 0 115.833 -23.833 151.5 -71.5s53.5 -113.834 53.5 -198.501s-18.5 -152.5 -55.5 -203.5s-87.833 -76.5 -152.5 -76.5c-32 0 -59.167 5.33301 -81.5 16s-44.5 28 -66.5 52v-257h-90zM261.001 454.001c-40.667 0 -72.834 -16.833 -96.501 -50.5
s-35.5 -81.167 -35.5 -142.5c0 -60.667 11.833 -108 35.5 -142s55.834 -51 96.501 -51c40 0 71.833 17.333 95.5 52s35.5 81.667 35.5 141c0 60 -11.833 107.167 -35.5 141.5s-55.5 51.5 -95.5 51.5zM605.001 454.001c-40.667 0 -72.5 -17 -95.5 -51
s-34.5 -81.333 -34.5 -142c0 -61.333 11.667 -108.833 35 -142.5s55 -50.5 95 -50.5c41.333 0 73.833 17.167 97.5 51.5s35.5 81.5 35.5 141.5c0 62 -11.833 109.667 -35.5 143s-56.167 50 -97.5 50z" />
    <glyph glyph-name="ocircumflex" unicode="&#x444;" horiz-adv-x="887" 
d="M388 -202l0.000976562 257.001c-38 -45.333 -87 -68 -147 -68c-63.333 0 -113.833 25.5 -151.5 76.5s-56.5 118.833 -56.5 203.5c0 84 18.333 150 55 198s86.334 72 149.001 72c32.667 0 60.667 -6 84 -18s45.666 -31 66.999 -57v254h90v-254c22.667 26 45.667 45 69 57
s50.666 18 81.999 18c65.333 0 115.833 -23.833 151.5 -71.5s53.5 -113.834 53.5 -198.501s-18.5 -152.5 -55.5 -203.5s-87.833 -76.5 -152.5 -76.5c-32 0 -59.167 5.33301 -81.5 16s-44.5 28 -66.5 52v-257h-90zM261.001 454.001c-40.667 0 -72.834 -16.833 -96.501 -50.5
s-35.5 -81.167 -35.5 -142.5c0 -60.667 11.833 -108 35.5 -142s55.834 -51 96.501 -51c40 0 71.833 17.333 95.5 52s35.5 81.667 35.5 141c0 60 -11.833 107.167 -35.5 141.5s-55.5 51.5 -95.5 51.5zM605.001 454.001c-40.667 0 -72.5 -17 -95.5 -51
s-34.5 -81.333 -34.5 -142c0 -61.333 11.667 -108.833 35 -142.5s55 -50.5 95 -50.5c41.333 0 73.833 17.167 97.5 51.5s35.5 81.5 35.5 141.5c0 62 -11.833 109.667 -35.5 143s-56.167 50 -97.5 50z" />
    <glyph glyph-name="otilde" unicode="&#xf5;" horiz-adv-x="528" 
d="M188 269l-171 255h112l114 -182l118 182h112l-173 -250l184 -274h-116l-125 201l-127 -201h-109z" />
    <glyph glyph-name="otilde" unicode="&#x445;" horiz-adv-x="528" 
d="M188 269l-171 255h112l114 -182l118 182h112l-173 -250l184 -274h-116l-125 201l-127 -201h-109z" />
    <glyph glyph-name="odieresis" unicode="&#xf6;" horiz-adv-x="605" 
d="M477 2l-80 -0.000976562v81c-32 -64 -86.333 -96 -163 -96c-64 0 -108.333 17.167 -133 51.5s-37 83.5 -37 147.5v338h91v-333c0 -45.333 7.66699 -77.166 23 -95.499s41.333 -27.5 78 -27.5c44.667 0 80 18.333 106 55c20 28 30 73 30 135v266h90v-441h79v-214h-84v133z
" />
    <glyph glyph-name="odieresis" unicode="&#x446;" horiz-adv-x="605" 
d="M477 2l-80 -0.000976562v81c-32 -64 -86.333 -96 -163 -96c-64 0 -108.333 17.167 -133 51.5s-37 83.5 -37 147.5v338h91v-333c0 -45.333 7.66699 -77.166 23 -95.499s41.333 -27.5 78 -27.5c44.667 0 80 18.333 106 55c20 28 30 73 30 135v266h90v-441h79v-214h-84v133z
" />
    <glyph glyph-name="divide" unicode="&#xf7;" horiz-adv-x="539" 
d="M64 524h91.001v-141c0 -47.333 7.16699 -79.833 21.5 -97.5s40.833 -26.5 79.5 -26.5c45.333 0 80.666 18.667 105.999 56c20 26 30 70 30 132v77h90v-522h-85v270c-30.667 -63.333 -85 -95 -163 -95c-61.333 0 -105 17.167 -131 51.5s-39 83.833 -39 148.5v147z" />
    <glyph glyph-name="divide" unicode="&#x447;" horiz-adv-x="539" 
d="M64 524h91.001v-141c0 -47.333 7.16699 -79.833 21.5 -97.5s40.833 -26.5 79.5 -26.5c45.333 0 80.666 18.667 105.999 56c20 26 30 70 30 132v77h90v-522h-85v270c-30.667 -63.333 -85 -95 -163 -95c-61.333 0 -105 17.167 -131 51.5s-39 83.833 -39 148.5v147z" />
    <glyph glyph-name="oslash" unicode="&#xf8;" horiz-adv-x="788" 
d="M740 0l-90.001 -0.000976562v64c-28 -28 -53.167 -47.833 -75.5 -59.5s-48.166 -17.5 -77.499 -17.5c-31.333 0 -56.5 5.66699 -75.5 17s-37.5 31.333 -55.5 60c-11.333 -12.667 -23.5 -24.167 -36.5 -34.5s-25.167 -18.5 -36.5 -24.5c-24 -12 -51.667 -18 -83 -18
c-105.333 0 -158 60 -158 180v357h90v-342c0 -38 7.16699 -66.5 21.5 -85.5s36.5 -28.5 66.5 -28.5c24 0 46.5 7.16699 67.5 21.5s34.833 32.5 41.5 54.5c8 17.333 12 51 12 101v279h91v-329c0 -49.333 5.66699 -82.833 17 -100.5s32 -26.5 62 -26.5
c27.333 0 51.833 7.83301 73.5 23.5s37.5 36.834 47.5 63.501c5.33301 16 8 45.333 8 88v281h90v-524z" />
    <glyph glyph-name="oslash" unicode="&#x448;" horiz-adv-x="788" 
d="M740 0l-90.001 -0.000976562v64c-28 -28 -53.167 -47.833 -75.5 -59.5s-48.166 -17.5 -77.499 -17.5c-31.333 0 -56.5 5.66699 -75.5 17s-37.5 31.333 -55.5 60c-11.333 -12.667 -23.5 -24.167 -36.5 -34.5s-25.167 -18.5 -36.5 -24.5c-24 -12 -51.667 -18 -83 -18
c-105.333 0 -158 60 -158 180v357h90v-342c0 -38 7.16699 -66.5 21.5 -85.5s36.5 -28.5 66.5 -28.5c24 0 46.5 7.16699 67.5 21.5s34.833 32.5 41.5 54.5c8 17.333 12 51 12 101v279h91v-329c0 -49.333 5.66699 -82.833 17 -100.5s32 -26.5 62 -26.5
c27.333 0 51.833 7.83301 73.5 23.5s37.5 36.834 47.5 63.501c5.33301 16 8 45.333 8 88v281h90v-524z" />
    <glyph glyph-name="ugrave" unicode="&#xf9;" horiz-adv-x="865" 
d="M734 0l-84.001 -0.000976562v64c-28 -28 -53.167 -47.833 -75.5 -59.5s-48.166 -17.5 -77.499 -17.5c-31.333 0 -56.5 5.66699 -75.5 17s-37.5 31.333 -55.5 60c-11.333 -12.667 -23.5 -24.167 -36.5 -34.5s-25.167 -18.5 -36.5 -24.5c-24 -12 -51.667 -18 -83 -18
c-105.333 0 -158 60 -158 180v357h90v-342c0 -38 7.16699 -66.5 21.5 -85.5s36.5 -28.5 66.5 -28.5c24 0 46.5 7.16699 67.5 21.5s34.833 32.5 41.5 54.5c8 17.333 12 51 12 101v279h91v-329c0 -49.333 5.66699 -82.833 17 -100.5s32 -26.5 62 -26.5
c27.333 0 51.833 7.83301 73.5 23.5s37.5 36.834 47.5 63.501c5.33301 16 8 45.333 8 88v281h90v-441h79v-214h-85v131z" />
    <glyph glyph-name="ugrave" unicode="&#x449;" horiz-adv-x="865" 
d="M734 0l-84.001 -0.000976562v64c-28 -28 -53.167 -47.833 -75.5 -59.5s-48.166 -17.5 -77.499 -17.5c-31.333 0 -56.5 5.66699 -75.5 17s-37.5 31.333 -55.5 60c-11.333 -12.667 -23.5 -24.167 -36.5 -34.5s-25.167 -18.5 -36.5 -24.5c-24 -12 -51.667 -18 -83 -18
c-105.333 0 -158 60 -158 180v357h90v-342c0 -38 7.16699 -66.5 21.5 -85.5s36.5 -28.5 66.5 -28.5c24 0 46.5 7.16699 67.5 21.5s34.833 32.5 41.5 54.5c8 17.333 12 51 12 101v279h91v-329c0 -49.333 5.66699 -82.833 17 -100.5s32 -26.5 62 -26.5
c27.333 0 51.833 7.83301 73.5 23.5s37.5 36.834 47.5 63.501c5.33301 16 8 45.333 8 88v281h90v-441h79v-214h-85v131z" />
    <glyph glyph-name="uacute" unicode="&#xfa;" horiz-adv-x="718" 
d="M59 524l272 -0.000976562v-209h171c32 0 62 -6.5 90 -19.5s50.167 -31.167 66.5 -54.5s24.5 -51.666 24.5 -84.999c0 -27.333 -7.83301 -53 -23.5 -77s-36.5 -43.167 -62.5 -57.5s-51.333 -21.5 -76 -21.5h-280v442h-182v82zM499 235.999h-168v-155h171
c23.333 0 43.333 7 60 21s25 32 25 54c0 21.333 -8 40 -24 56s-37.333 24 -64 24z" />
    <glyph glyph-name="uacute" unicode="&#x44a;" horiz-adv-x="718" 
d="M59 524l272 -0.000976562v-209h171c32 0 62 -6.5 90 -19.5s50.167 -31.167 66.5 -54.5s24.5 -51.666 24.5 -84.999c0 -27.333 -7.83301 -53 -23.5 -77s-36.5 -43.167 -62.5 -57.5s-51.333 -21.5 -76 -21.5h-280v442h-182v82zM499 235.999h-168v-155h171
c23.333 0 43.333 7 60 21s25 32 25 54c0 21.333 -8 40 -24 56s-37.333 24 -64 24z" />
    <glyph glyph-name="ucircumflex" unicode="&#xfb;" horiz-adv-x="742" 
d="M344 0h-280v524h91v-209h171c32.667 0 62.167 -6.33301 88.5 -19s48.166 -30.834 65.499 -54.501s26 -52.167 26 -85.5c0 -43.333 -17.167 -80.166 -51.5 -110.499s-71.166 -45.5 -110.499 -45.5zM322 236h-167.001v-155h171c24.667 0 44.834 7 60.501 21
s23.5 32 23.5 54c0 21.333 -8 40 -24 56s-37.333 24 -64 24zM683.999 0h-90v524h90v-524z" />
    <glyph glyph-name="ucircumflex" unicode="&#x44b;" horiz-adv-x="742" 
d="M344 0h-280v524h91v-209h171c32.667 0 62.167 -6.33301 88.5 -19s48.166 -30.834 65.499 -54.501s26 -52.167 26 -85.5c0 -43.333 -17.167 -80.166 -51.5 -110.499s-71.166 -45.5 -110.499 -45.5zM322 236h-167.001v-155h171c24.667 0 44.834 7 60.501 21
s23.5 32 23.5 54c0 21.333 -8 40 -24 56s-37.333 24 -64 24zM683.999 0h-90v524h90v-524z" />
    <glyph glyph-name="udieresis" unicode="&#xfc;" 
d="M344 0l-280.001 0.000976562v524h91v-209h171c16 0 30.167 -1.33301 42.5 -4s26.5 -8 42.5 -16c27.333 -12.667 50.333 -31.334 69 -56.001c17.333 -24.667 26 -52.334 26 -83.001c0 -43.333 -17.167 -80.166 -51.5 -110.499s-71.166 -45.5 -110.499 -45.5z
M321.999 236.001h-167.001v-155h171c24.667 0 44.834 7 60.501 21s23.5 32 23.5 54c0 21.333 -8 40 -24 56s-37.333 24 -64 24z" />
    <glyph glyph-name="udieresis" unicode="&#x44c;" 
d="M344 0l-280.001 0.000976562v524h91v-209h171c16 0 30.167 -1.33301 42.5 -4s26.5 -8 42.5 -16c27.333 -12.667 50.333 -31.334 69 -56.001c17.333 -24.667 26 -52.334 26 -83.001c0 -43.333 -17.167 -80.166 -51.5 -110.499s-71.166 -45.5 -110.499 -45.5z
M321.999 236.001h-167.001v-155h171c24.667 0 44.834 7 60.501 21s23.5 32 23.5 54c0 21.333 -8 40 -24 56s-37.333 24 -64 24z" />
    <glyph glyph-name="yacute" unicode="&#xfd;" horiz-adv-x="539" 
d="M394 234l-168.002 -0.00195312v81h166c-14 92.667 -58.333 139 -133 139c-30.667 0 -58 -9.5 -82 -28.5s-40.667 -46.833 -50 -83.5h-92c8 62 32.333 110.333 73 145s91 52 151 52c50 0 92.333 -11.333 127 -34c16.667 -11.333 31.834 -25.166 45.501 -41.499
s24.834 -35.166 33.501 -56.499c18.667 -42 28 -93 28 -153c0 -84.667 -21 -151 -63 -199s-102.667 -72 -182 -72c-32.667 0 -63.834 7.33301 -93.501 22s-56.167 35.667 -79.5 63c-21.333 31.333 -34.666 71.333 -39.999 120h92c20 -81.333 61 -122 123 -122
c42 0 75.667 14.667 101 44c12.667 15.333 23 33.5 31 54.5s12 44.167 12 69.5z" />
    <glyph glyph-name="yacute" unicode="&#x44d;" horiz-adv-x="539" 
d="M394 234l-168.002 -0.00195312v81h166c-14 92.667 -58.333 139 -133 139c-30.667 0 -58 -9.5 -82 -28.5s-40.667 -46.833 -50 -83.5h-92c8 62 32.333 110.333 73 145s91 52 151 52c50 0 92.333 -11.333 127 -34c16.667 -11.333 31.834 -25.166 45.501 -41.499
s24.834 -35.166 33.501 -56.499c18.667 -42 28 -93 28 -153c0 -84.667 -21 -151 -63 -199s-102.667 -72 -182 -72c-32.667 0 -63.834 7.33301 -93.501 22s-56.167 35.667 -79.5 63c-21.333 31.333 -34.666 71.333 -39.999 120h92c20 -81.333 61 -122 123 -122
c42 0 75.667 14.667 101 44c12.667 15.333 23 33.5 31 54.5s12 44.167 12 69.5z" />
    <glyph glyph-name="thorn" unicode="&#xfe;" horiz-adv-x="764" 
d="M241 234h-85.999v-234h-91v524h91v-209h86c9.33301 70.667 34.666 125.334 75.999 164.001s95 58 161 58c73.333 0 131.333 -24 174 -72s64 -116 64 -204c0 -86 -21.167 -153.167 -63.5 -201.5s-100.5 -72.5 -174.5 -72.5c-68.667 0 -124 22 -166 66
c-22 22.667 -39.333 49.167 -52 79.5s-19 64.166 -19 101.499zM337.001 261c0 -60 12.6699 -107.168 38.0029 -141.501s59.666 -51.5 102.999 -51.5c45.333 0 80.333 17.333 105 52s37 83 37 145c0 40.667 -5.66699 74.667 -17 102
c-10.667 28.667 -26.834 50.334 -48.501 65.001s-47.167 22 -76.5 22s-54.333 -7.33301 -75 -22s-36.834 -37.167 -48.501 -67.5s-17.5 -64.833 -17.5 -103.5z" />
    <glyph glyph-name="thorn" unicode="&#x44e;" horiz-adv-x="764" 
d="M241 234h-85.999v-234h-91v524h91v-209h86c9.33301 70.667 34.666 125.334 75.999 164.001s95 58 161 58c73.333 0 131.333 -24 174 -72s64 -116 64 -204c0 -86 -21.167 -153.167 -63.5 -201.5s-100.5 -72.5 -174.5 -72.5c-68.667 0 -124 22 -166 66
c-22 22.667 -39.333 49.167 -52 79.5s-19 64.166 -19 101.499zM337.001 261c0 -60 12.6699 -107.168 38.0029 -141.501s59.666 -51.5 102.999 -51.5c45.333 0 80.333 17.333 105 52s37 83 37 145c0 40.667 -5.66699 74.667 -17 102
c-10.667 28.667 -26.834 50.334 -48.501 65.001s-47.167 22 -76.5 22s-54.333 -7.33301 -75 -22s-36.834 -37.167 -48.501 -67.5s-17.5 -64.833 -17.5 -103.5z" />
    <glyph glyph-name="ydieresis" unicode="&#xff;" horiz-adv-x="572" 
d="M88 162c0 62.667 27 102 81 118c-58.667 24 -88 62 -88 114c0 35.333 13.667 65.833 41 91.5s68.333 38.5 123 38.5h257v-524h-90v236h-167c-44.667 0 -67 -27 -67 -81c0 -20 -2.66699 -48 -8 -84s-10.333 -59.667 -15 -71h-92c16.667 42 25 96 25 162zM248 315h164.001
v134h-156c-24.667 0 -44.334 -5.33301 -59.001 -16s-22 -26.667 -22 -48c0 -46.667 24.333 -70 73 -70z" />
    <glyph glyph-name="ydieresis" unicode="&#x44f;" horiz-adv-x="572" 
d="M88 162c0 62.667 27 102 81 118c-58.667 24 -88 62 -88 114c0 35.333 13.667 65.833 41 91.5s68.333 38.5 123 38.5h257v-524h-90v236h-167c-44.667 0 -67 -27 -67 -81c0 -20 -2.66699 -48 -8 -84s-10.333 -59.667 -15 -71h-92c16.667 42 25 96 25 162zM248 315h164.001
v134h-156c-24.667 0 -44.334 -5.33301 -59.001 -16s-22 -26.667 -22 -48c0 -46.667 24.333 -70 73 -70z" />
    <glyph glyph-name="OE" unicode="&#x152;" horiz-adv-x="742" 
d="M86 716h100v-350l337 350h132l-289 -293l287 -423h-118l-237 359l-112 -111v-248h-100v716zM361 916h116l-109 -141h-72z" />
    <glyph glyph-name="oe" unicode="&#x153;" horiz-adv-x="495" 
d="M35 171l94 0.00195312c0 -35.333 10.333 -61.333 31 -78c18.667 -16.667 47.667 -25 87 -25c32.667 0 59.5 7.16699 80.5 21.5s31.5 32.5 31.5 54.5c0 12 -3.16699 21.167 -9.5 27.5s-19.833 14.166 -40.5 23.499l-164 70c-33.333 15.333 -57 32.5 -71 51.5
s-21 41.833 -21 68.5c0 44 17.833 80.333 53.5 109s82.5 43 140.5 43c35.333 0 67.5 -6 96.5 -18s52.833 -31 71.5 -57c16.667 -25.333 25 -56 25 -92h-90c0 56 -35.667 84 -107 84c-30 0 -53.833 -5.66699 -71.5 -17s-26.5 -26.333 -26.5 -45s15 -34 45 -46l154 -61
c41.333 -17.333 70 -35.5 86 -54.5s24 -44.167 24 -75.5c0 -33.333 -8.16699 -62.333 -24.5 -87s-40.5 -44.334 -72.5 -59.001s-69.333 -22 -112 -22c-66 0 -117.5 16.167 -154.5 48.5s-55.5 77.5 -55.5 135.5z" />
    <glyph glyph-name="Ydieresis" unicode="&#x178;" horiz-adv-x="495" 
d="M109 524l139 -415l138 415h98l-210 -583c-21.333 -52.667 -41.333 -91.834 -60 -117.501s-46.334 -38.5 -83.001 -38.5c-23.333 0 -48 3 -74 9v85c10.667 -3.33301 20.334 -6 29.001 -8s16.667 -3 24 -3c21.333 0 38 7.33301 50 22c11.333 16.667 25 50.334 41 101.001
l-194 533h102zM248 598c-40.667 0 -72.5 11.668 -95.5 35.001s-34.5 50.333 -34.5 81h81c0 -8.66699 4 -18.834 12 -30.501s20.333 -17.5 37 -17.5s29 5.33301 37 16c6 10 9.66699 20.667 11 32h79c0 -30 -11 -56.833 -33 -80.5s-53.333 -35.5 -94 -35.5z" />
    <glyph glyph-name="florin" unicode="&#x192;" horiz-adv-x="572" 
d="M447 447l-11.001 -62.001h-105l-66 -378c-4 -21.333 -8.33301 -41.666 -13 -60.999s-10 -36 -16 -50c-11.333 -30 -29 -53.833 -53 -71.5s-58 -26.5 -102 -26.5l-59 3l13 79c36.667 0 63.5 3.16699 80.5 9.5s29.833 17.833 38.5 34.5c4 8.66699 7.5 18.334 10.5 29.001
s6.5 27 10.5 49l70 383h-92l13 62h92l18 112c11.333 62.667 30.5 106.667 57.5 132s67.167 38 120.5 38h35c10.667 -2 18.334 -3.33301 23.001 -4l-15 -77h-11c-21.333 0 -39.833 -1.83301 -55.5 -5.5s-27.167 -8.5 -34.5 -14.5c-14.667 -10.667 -26 -35.334 -34 -74.001
l-20 -107h105z" />
    <glyph glyph-name="circumflex" unicode="&#x2c6;" horiz-adv-x="605" 
d="M477 2l-80 -0.000976562v81c-32 -64 -86.333 -96 -163 -96c-64 0 -108.333 17.167 -133 51.5s-37 83.5 -37 147.5v338h91v-333c0 -45.333 7.66699 -77.166 23 -95.499s41.333 -27.5 78 -27.5c44.667 0 80 18.333 106 55c20 28 30 73 30 135v266h90v-441h79v-214h-84v133z
" />
    <glyph glyph-name="tilde" unicode="&#x2dc;" horiz-adv-x="539" 
d="M64 524h91.001v-141c0 -47.333 7.16699 -79.833 21.5 -97.5s40.833 -26.5 79.5 -26.5c45.333 0 80.666 18.667 105.999 56c20 26 30 70 30 132v77h90v-522h-85v270c-30.667 -63.333 -85 -95 -163 -95c-61.333 0 -105 17.167 -131 51.5s-39 83.833 -39 148.5v147z" />
    <glyph glyph-name="endash" unicode="&#x2013;" horiz-adv-x="605" 
d="M2 305h543v-79h-543v79z" />
    <glyph glyph-name="emdash" unicode="&#x2014;" horiz-adv-x="1056" 
d="M0 305h981v-79h-981v79z" />
    <glyph glyph-name="quoteleft" unicode="&#x2018;" horiz-adv-x="247" 
d="M162 473h-106.999v101c0 43.333 9 78.166 27 104.499s44.667 43.5 80 51.5v-51c-16.667 -6.66699 -28.334 -16.167 -35.001 -28.5s-11.667 -34.166 -15 -65.499h50v-112z" />
    <glyph glyph-name="quoteright" unicode="&#x2019;" horiz-adv-x="247" 
d="M55 716h107v-103c0 -88.667 -35.667 -141 -107 -157v52c17.333 8 29.5 17.833 36.5 29.5s12.167 33.167 15.5 64.5h-52v114z" />
    <glyph glyph-name="quotesinglbase" unicode="&#x201a;" horiz-adv-x="552" 
d="M344 0l-279.999 -0.000976562v524h258c53.333 0 93.666 -12 120.999 -36c26 -25.333 39 -55.666 39 -90.999c0 -54 -28.333 -93 -85 -117c70 -18 105 -66 105 -144c0 -34.667 -16.5 -66 -49.5 -94s-69.167 -42 -108.5 -42zM322.001 235.999h-167.001v-155h171
c24.667 0 44.834 7 60.501 21s23.5 32 23.5 54c0 21.333 -8 40 -24 56s-37.333 24 -64 24zM296 314.999c64 0 96 25.666 96 76.999c0 18.667 -8.5 32.834 -25.5 42.501s-40.5 14.5 -70.5 14.5h-141v-134h141z" />
    <glyph glyph-name="quotedblleft" unicode="&#x201c;" horiz-adv-x="383" 
d="M296 473l-108.001 0.000976562v101c0 42.667 9 77.334 27 104.001s45 44 81 52v-51c-18 -6.66699 -30.167 -15.834 -36.5 -27.501s-11.166 -33.834 -14.499 -66.501h51v-112zM139.999 473.001l-109 -0.000976562v101c0 42 9.5 76.833 28.5 104.5
s45.833 44.834 80.5 51.501v-51c-18 -7.33301 -30.333 -17.333 -37 -30c-4 -6 -7.5 -14.833 -10.5 -26.5s-4.5 -24.167 -4.5 -37.5h52v-112z" />
    <glyph glyph-name="quotedblright" unicode="&#x201d;" horiz-adv-x="383" 
d="M31 716h109v-103c0 -43.333 -9.33301 -78.333 -28 -105s-45.667 -44 -81 -52v52c19.333 8 32.333 18.333 39 31c4 6.66699 7.16699 15.167 9.5 25.5s3.5 22.833 3.5 37.5h-52v114zM188 716l107.999 -0.000976562v-103c0 -43.333 -9.16699 -78.333 -27.5 -105
s-45.166 -44 -80.499 -52v52c20 8 33.333 18.333 40 31c4 8 6.83301 16.833 8.5 26.5s2.5 21.834 2.5 36.501h-51v114z" />
    <glyph glyph-name="quotedblbase" unicode="&#x201e;" horiz-adv-x="506" 
d="M447 171c0 -58.667 -17.999 -104 -53.999 -136s-88 -48 -156 -48c-62.667 0 -113.167 15.167 -151.5 45.5s-57.5 71.166 -57.5 122.499c0 32 8.16699 57.167 24.5 75.5s45.5 36.5 87.5 54.5l153 61c29.333 12 44 27.333 44 46c0 18 -9.16699 32.833 -27.5 44.5
s-41.833 17.5 -70.5 17.5c-71.333 0 -107 -28 -107 -84h-90c0 36 8.33301 66.5 25 91.5s40 43.833 70 56.5s63 19 99 19c37.333 0 70.666 -6.33301 99.999 -19s52.166 -30.667 68.499 -54s24.5 -49.666 24.5 -78.999c0 -28.667 -6.66699 -51.667 -20 -69
c-12 -17.333 -36 -34.333 -72 -51l-164 -70c-20 -8.66699 -33.333 -16.167 -40 -22.5s-10 -15.833 -10 -28.5c0 -22 10.5 -40.167 31.5 -54.5s48.167 -21.5 81.5 -21.5c40.667 0 70.334 8.5 89.001 25.5s28 42.833 28 77.5h94z" />
    <glyph glyph-name="dagger" unicode="&#x2020;" horiz-adv-x="585" 
d="M35 510h191v206h90v-206h194v-83h-194v-576h-90v576h-191v83z" />
    <glyph glyph-name="daggerdbl" unicode="&#x2021;" 
d="M64 361c0 21.333 2.50195 40.1689 7.50195 56.502s12.5 31.833 22.5 46.5c34.667 48.667 94.667 73 180 73c64 0 113.5 -12 148.5 -36s52.5 -67.667 52.5 -131v-247c0 -18.667 2.16699 -32.5 6.5 -41.5s12.5 -13.5 24.5 -13.5l9 2h17v-68
c-10 -3.33301 -19.833 -6 -29.5 -8s-18.167 -3 -25.5 -3c-50.667 0 -78.334 26.333 -83.001 79c-51.333 -55.333 -111.666 -83 -180.999 -83c-50.667 0 -91.834 14.5 -123.501 43.5s-47.5 66.167 -47.5 111.5c0 73.333 29.833 120.666 89.5 141.999s144.5 37 254.5 47v26
c0 35.333 -8.33301 60.333 -25 75s-45.667 22 -87 22c-37.333 0 -65.333 -7.33301 -84 -22s-29.334 -38.334 -32.001 -71.001h-94zM385.002 261.003c-100.667 -14 -164 -27.333 -190 -40c-36.667 -13.333 -55 -37.333 -55 -72c0 -26 8.66699 -45.667 26 -59
c16.667 -14.667 40 -22 70 -22c40 0 74.833 12 104.5 36s44.5 52.667 44.5 86v71z" />
    <glyph glyph-name="bullet" unicode="&#x2022;" 
d="M195 280c0 25.333 9.16699 47.501 27.5 66.501s40.5 28.5 66.5 28.5c28 0 51 -9.66699 69 -29s27 -41.333 27 -66c0 -22.667 -9.33301 -44.334 -28 -65.001c-19.333 -19.333 -42 -29 -68 -29c-25.333 0 -47.333 9.83301 -66 29.5s-28 41.167 -28 64.5z" />
    <glyph glyph-name="ellipsis" unicode="&#x2026;" horiz-adv-x="955" 
d="M110 112h107v-112h-107v112zM438 112h107v-112h-107v112zM764 112h106v-112h-106v112z" />
    <glyph glyph-name="perthousand" unicode="&#x2030;" horiz-adv-x="528" 
d="M392 453l0.00195312 70.998h88v-443c0 -64.667 -5.5 -117.5 -16.5 -158.5s-33.167 -74.167 -66.5 -99.5s-80.333 -38 -141 -38c-62 0 -109 12.5 -141 37.5s-52 65.833 -60 122.5h90c7.33301 -29.333 19.166 -49.5 35.499 -60.5s40.833 -16.5 73.5 -16.5
c48.667 0 82.834 14.333 102.501 43s29.5 79.334 29.5 152.001c-21.333 -27.333 -43.5 -46.833 -66.5 -58.5s-49.833 -17.5 -80.5 -17.5c-62.667 0 -112.334 23.833 -149.001 71.5s-55 112.834 -55 195.501c0 86 18.167 154.667 54.5 206s86.833 77 151.5 77
c63.333 0 113.666 -28 150.999 -84zM131.002 260.998c0 -57.333 11.834 -103.833 35.501 -139.5s55.167 -53.5 94.5 -53.5s70.666 17.667 93.999 53s35 82 35 140c0 58.667 -11.5 105.5 -34.5 140.5s-54.5 52.5 -94.5 52.5c-40.667 0 -72.5 -17.333 -95.5 -52
s-34.5 -81.667 -34.5 -141z" />
    <glyph glyph-name="guilsinglleft" unicode="&#x2039;" horiz-adv-x="1056" 
d="M86 716h113l325 -563v563h100v-716h-112l-326 567v-567h-100v716zM692 561c0 52 13.167 93.167 39.5 123.5s62.833 45.5 109.5 45.5c44 0 78.833 -15.167 104.5 -45.5s38.5 -70.166 38.5 -119.499c0 -50 -13.5 -90.167 -40.5 -120.5s-62.5 -45.5 -106.5 -45.5
c-44.667 0 -80 14.667 -106 44s-39 68.666 -39 117.999zM760 567c0 -34 6.66699 -60 20 -78s32.333 -27 57 -27c54 0 81 35 81 105c0 68.667 -26.333 103 -79 103c-26 0 -45.667 -8.83301 -59 -26.5s-20 -43.167 -20 -76.5zM673 291v66h332v-66h-332z" />
    <glyph glyph-name="guilsinglright" unicode="&#x203a;" horiz-adv-x="684" 
d="M86 716h514v-90h-414v-210h383v-90h-383v-236h419v-90h-519v716zM204 922h90v-116h-90v116zM464 922v-116h-90v116h90z" />
    <glyph glyph-name="trademark" unicode="&#x2122;" horiz-adv-x="999" 
d="M902 716v-429h-68v361l-138 -361h-41l-131 361v-361h-71v429h114l110 -298l114 298h111zM381 716v-63h-125v-366h-76v366h-127v63h328z" />
    <glyph glyph-name=".null" horiz-adv-x="0" 
 />
    <glyph glyph-name="nonmarkingreturn" horiz-adv-x="293" 
 />
  </font>
</defs>
</svg>
